<?xml version="1.0" encoding="UTF-8"?>
<svg version="1.1" viewBox="0 0 1725 2048" width="1280" height="1280" xmlns="http://www.w3.org/2000/svg">
<path transform="translate(1029,155)" d="m0 0h11l10 3 6 5 4 9 4 26 1 11 2 1 90 1 44 1 81 1 27 1 6 3 7 8 4 8 2 11-1 12-4 9-7 8-6 4-5 1-84 1-40 1-67 1h-50l1 167 32 11 18 8 11 6 14 10 14 12 12 12 9 11 10 15 9 17 6 15 7 26 2 12v39l-5 25-5 17-8 18-9 16-10 14-12 13-10 10-17 13-15 9-20 9-31 11h-3v162l-1 74-1 41-1 256-7 8-14 7h-10l-12-6-7-7-1-2-1-199-2-172-1-162-10-3-22-8-25-12-17-11-10-8-12-11-7-7-12-16-12-21-8-20-7-24-2-10-1-15v-20l2-20 4-17 8-22 8-17 10-16 13-16 13-13 14-11 13-8 19-9 34-13 5-3h2v-165l-233-1-8 7-115 115-3 4h-2v2l-8 7-4 5-8 7-20 20-4 5h-2v2l-198 198-1 36v1211l-1 11h1218l10 5 8 8 5 10v13l-4 13-4 6-6 5-8 3-15 2-37 1h-1431l-9-5-7-7-3-7v-31l3-6 5-4 10-4 10-1 181-4 4-2 1-6 1-467 1-327 1-259 1-319 1-212 1-32 1-62 3-3 2-1 29-2 27-1 388-3 200-1 17-1 3-7 5-36 5-6 9-4zm-625 123-5 2v272l1 3 4-1 10-10 7-8 204-204 7-8 39-39 1-3-1-1-104-2zm609 225-16 4-16 7-15 9-13 11-10 10-8 11-8 14-7 16-4 16v41l4 17 6 16 9 16 10 13 11 11 14 10 15 9 16 6 9 2 10 1h28l12-1 16-5 16-8 13-9 11-9 7-7v-2h2l13-17 9-16 6-16 1-4 1-15v-26l-1-14-5-16-9-17-10-14-9-10-7-7-17-12-16-8-16-5-12-2z" fill="#B12826"/>
<path transform="translate(381,1906)" d="m0 0 18 1v3h1218l10 5 8 8 5 10v13l-4 13-4 6-6 5-8 3-15 2-37 1h-1431l-9-5-7-7-3-7v-31l3-6 5-4 10-4 10-1 181-4z" fill="#f40"/>
<path transform="translate(1017,280)" d="m0 0h43l1 1 1 39 1 126 4 3 30 10 18 8 11 6 14 10 14 12 12 12 9 11 10 15 9 17 6 15 7 26 2 12v39l-5 25-5 17-8 18-9 16-10 14-12 13-10 10-17 13-15 9-20 9-31 11h-3v162l-1 74-1 41-1 256-7 8-14 7h-10l-12-6-7-7-1-2-1-199-2-172-1-162-10-3-22-8-25-12-17-11-10-8-12-11-7-7-12-16-12-21-8-20-7-24-2-10-1-15v-20l2-20 4-17 8-22 8-17 10-16 13-16 13-13 14-11 13-8 19-9 34-13 5-3h2l1-165zm-4 223-16 4-16 7-15 9-13 11-10 10-8 11-8 14-7 16-4 16v41l4 17 6 16 9 16 10 13 11 11 14 10 15 9 16 6 9 2 10 1h28l12-1 16-5 16-8 13-9 11-9 7-7v-2h2l13-17 9-16 6-16 1-4 1-15v-26l-1-14-5-16-9-17-10-14-9-10-7-7-17-12-16-8-16-5-12-2z" fill="#030101"/>
<path transform="translate(1029,155)" d="m0 0h11l10 3 6 5 4 9 2 12v24l-1 1h-53l-2-1 1-15 4-27 5-6 9-4z" fill="#040101"/>
<path transform="translate(1062,795)" d="m0 0 5 1-3 1v162h-1l-1-124z" fill="#B12827"/>
</svg>
