<?xml version="1.0" encoding="UTF-8"?>
<svg version="1.1" viewBox="0 0 1631 2048" width="1280" height="1280" xmlns="http://www.w3.org/2000/svg">
<path transform="translate(957,118)" d="m0 0h14l9 4 8 8 4 8 1 11v29l234-1 13 1 9 4 8 7 4 8 1 4v26l-5 10-4 5-8 5-12 2h-240v170l13 2 20 6 20 9 13 7 14 10 14 12 12 12 13 17 8 13 8 16 7 19 5 20 3 22v26l-4 25-8 26-9 20-11 18-8 10-11 12-8 8-14 11-10 7-16 9-18 8-24 7-8 2-1 117 11-7 18-13 19-13 11-8 19-13 20-14 18-13 19-13 17-12 16-11 20-14 18-13 17-12 16-11 23-16 14-10 12-8 18-13 17-12 11-7 5-2h14l10 4 6 5 6 9 3 8v11l-4 9-7 8-12 9-35 24-15 11-19 13-18 13-17 12-22 15-23 16-18 13-10 7-13 9-22 15-11 8-16 11-18 13-16 11-14 10-29 20-15 10-10 5-9 2h-5v343l-2 13-6 9-8 6-7 3h-13l-9-4-8-7-5-11v-352l-9-1-14-7-14-10-15-10-18-13-15-10-18-13-19-13-17-12-14-10-12-8-14-10-23-16-18-13-19-13-14-10-19-13-18-13-12-8-18-13-19-13-16-11-10-8-6-7-4-11v-7l3-10 7-10 5-4 10-4h13l10 4 18 13 19 13 12 9 16 11 10 7 17 12 13 9 23 16 18 13 32 22 18 13 12 8 14 10 16 11 18 13 15 10 18 13 22 15 14 10 2 1-1-8v-107l-21-5-19-7-16-8-18-11-10-8-12-11-10-10-13-17-9-15-8-16-9-27-4-22v-40l5-26 5-16 7-16 11-20 9-12 8-10 9-10 8-7 11-9 21-13 20-9 15-5 20-5v-169l-235 1-305 305-4 5-8 7-60 60-1 1241-1 30h1240l10 6 6 7 4 8 1 4v21l-4 11-7 8-9 5-5 1h-1504l-9-3-10-9-5-11-1-7v-11l2-10 4-8 9-8 7-4h200v-1700l5-10 8-7 5-3 15-1h652l1-37 4-9 7-8 8-4zm-636 131-1 275 2 1 7-6 7-8 15-15 6-5 5-6 5-4 7-8 5-5 6-5 7-8 35-35 5-4 5-6 6-5 5-6 6-5 5-6 53-53 7-6 7-8 24-24 5-4 7-8 5-5 6-5 7-8 9-9 5-4 2-5zm629 225-22 5-15 6-16 9-12 9-13 12v2h-2l-10 15-8 15-6 18-3 16v30l4 19 6 16 8 15 10 13 7 8h2v2l11 9 10 7 16 8 14 5 22 4h23l20-4 16-6 16-8 11-8 10-9 8-8 12-17 7-15 5-14 4-21v-24l-4-20-4-12-8-17-11-16-10-11-17-13-14-8-21-8-20-4z" fill="#B12C2A"/>
<path transform="translate(935,250)" d="m0 0h51l6 1v168l14 2 20 6 20 9 13 7 14 10 14 12 12 12 13 17 8 13 8 16 7 19 5 20 3 22v26l-4 25-8 26-9 20-11 18-8 10-11 12-8 8-14 11-10 7-16 9-18 8-24 7-8 2-1 117 11-7 18-13 19-13 11-8 19-13 20-14 18-13 19-13 17-12 16-11 20-14 18-13 17-12 16-11 23-16 14-10 12-8 18-13 17-12 11-7 5-2h14l10 4 6 5 6 9 3 8v11l-4 9-7 8-12 9-35 24-15 11-19 13-18 13-17 12-22 15-23 16-18 13-10 7-13 9-22 15-11 8-16 11-18 13-16 11-14 10-29 20-15 10-10 5-9 2h-5v343l-2 13-6 9-8 6-7 3h-13l-9-4-8-7-5-11v-352l-9-1-14-7-14-10-15-10-18-13-15-10-18-13-19-13-17-12-14-10-12-8-14-10-23-16-18-13-19-13-14-10-19-13-18-13-12-8-18-13-19-13-16-11-10-8-6-7-4-11v-7l3-10 7-10 5-4 10-4h13l10 4 18 13 19 13 12 9 16 11 10 7 17 12 13 9 23 16 18 13 32 22 18 13 12 8 14 10 16 11 18 13 15 10 18 13 22 15 14 10 2 1-1-8v-107l-21-5-19-7-16-8-18-11-10-8-12-11-10-10-13-17-9-15-8-16-9-27-4-22v-40l5-26 5-16 7-16 11-20 9-12 8-10 9-10 8-7 11-9 21-13 20-9 15-5 20-5zm15 224-22 5-15 6-16 9-12 9-13 12v2h-2l-10 15-8 15-6 18-3 16v30l4 19 6 16 8 15 10 13 7 8h2v2l11 9 10 7 16 8 14 5 22 4h23l20-4 16-6 16-8 11-8 10-9 8-8 12-17 7-15 5-14 4-21v-24l-4-20-4-12-8-17-11-16-10-11-17-13-14-8-21-8-20-4z" fill="#030101"/>
<path transform="translate(249,1896)" d="m0 0h70l1 1 1240 1 10 6 6 7 4 8 1 4v21l-4 11-7 8-9 5-5 1h-1504l-9-3-10-9-5-11-1-7v-11l2-10 4-8 9-8 7-4h200z" fill="#FD4700"/>
<path transform="translate(957,118)" d="m0 0h14l9 4 8 8 4 8v39l-32 1-25-1v-37l4-9 7-8 8-4z" fill="#030101"/>
</svg>
