<?xml version="1.0" encoding="UTF-8"?>
<svg version="1.1" viewBox="0 0 1728 2048" width="1280" height="1280" xmlns="http://www.w3.org/2000/svg">
<path transform="translate(1020,94)" d="m0 0h12l9 3 10 9 4 8 1 4v36h244l9 2 9 6 6 9 3 10v18l-3 10-6 8-8 6-5 2-8 1h-241v203l-3 9-7 9-9 5-8 2-11-1-10-6-6-7-4-9-1-14v-190h-238l-6 8-63 63-5 4-7 8-21 21-7 6-7 8-7 6-7 8-4 4h-2v2l-6 5-15 15-7 8-5 4-5 6-8 7-21 21-5 6-8 7-161 161-1 2-1 1273h1242l9 3 8 7 5 8 2 6 1 16-2 12-5 9-5 5-6 4-9 2h-1510l-10-4-7-6-6-12-1-3v-21l4-11 6-8 10-6 3-1 199-1v-1694l2-13 6-9 9-7 5-2h667v-15l1-24 4-8 5-6 10-6zm-640 132v278l4-2 16-17 18-18 6-5 5-6 6-5 7-8 8-7 7-8 12-11v-2h2v-2h2l5-6 6-5v-2h2v-2h2l4-4v-2l4-2 157-157 6-5v-2z" fill="#B12B29"/>
<path transform="translate(308,1879)" d="m0 0 1314 1 9 3 8 7 5 8 2 6 1 16-2 12-5 9-5 5-6 4-9 2h-1510l-10-4-7-6-6-12-1-3v-21l4-11 6-8 10-6 3-1z" fill="#FE4A00"/>
<path transform="translate(998,226)" d="m0 0h57v196l-1 14-6 9-8 6-11 3-11-1-10-6-6-7-4-9-1-14v-189z" fill="#040101"/>
<path transform="translate(1020,94)" d="m0 0h12l9 3 10 9 4 8v40h-57l-1-15 1-24 4-8 5-6 10-6z" fill="#040102"/>
</svg>
