<?xml version="1.0" encoding="UTF-8"?>
<svg version="1.1" viewBox="0 0 1636 2048" width="1280" height="1280" xmlns="http://www.w3.org/2000/svg">
<path transform="translate(952,109)" d="m0 0h11l9 3 9 8 5 10 1 4v35h245l12 3 7 5 6 9 2 4 1 6v20l-3 9-4 6-8 7-6 3-251 1v171l25 6 24 10 17 9 18 13 15 14 9 9 10 13 11 18 9 19 7 21 4 20 2 16v23l-4 27-6 21-6 15-8 16-9 14-10 13-21 21-12 9-14 9-19 10-20 7-20 5h-3v119l7-4 14-10 43-30 19-13 42-30 25-17 14-10 19-13 16-12 19-13 17-12 16-11 17-12 16-11 18-13 17-12 10-7 10-6 13-2 11 2 8 6 7 8 4 9 1 9-3 10-7 9-9 8-16 11-23 16-16 11-17 12-18 13-22 15-20 14-17 12-14 10-17 12-25 17-17 12-18 13-30 21-46 32-16 11-14 8-8 3-9 2-1 355-5 10-9 10-9 12-9 13-28 40-16 23-7 10-13 19-12 16-12 18-10 14-7 10-8 12-10 14-36 51-11 16-16 23-11 16-13 18-9 13-9 12-9 6-7 2h-11l-12-5-7-6-7-14v-11l5-12 12-17 16-23 13-18 12-18 13-18 11-16 14-20 10-14 13-19 14-20 12-17 13-18 8-12 16-23 11-16 13-18 13-19 10-14 14-20 9-12 1-3 1-331h-6l-16-8-38-26-23-16-28-20-16-11-17-12-20-14-16-11-23-16-18-13-19-13-20-14-18-13-19-13-17-12-18-13-16-11-13-9-10-9-5-7-2-6v-12l4-10 4-6 7-6 7-3 10-1 11 2 11 7 17 12 14 10 20 14 17 12 29 20 18 13 20 14 19 13 17 12 20 14 14 10 16 11 34 24 16 11 18 13 6 4 19 13 9 7 1-117-16-3-17-5-20-9-14-8-19-14-15-14-12-13-12-17-11-21-7-18-5-19-4-25v-25l4-26 6-21 8-20 12-21 13-17 11-12 8-8 17-13 21-12 21-9 21-6 10-1v-172h-216l-23 1-11 12-370 370-1 1285h1250l9 3 8 6 6 9 2 8v21l-3 9-7 9-10 6-3 1h-1526l-11-6-7-8-3-8-1-4v-21l4-11 6-7 10-6 3-1h200v-1716l3-9 5-8 9-6 4-2h673v-33l2-10 6-8 7-6zm-638 132-7 1v280l3-1 7-8 269-269v-2l-38-1zm632 228-20 4-15 5-19 10-16 12-13 13-9 13-10 19-6 19-3 17v24l3 15 5 17 8 16 6 10 8 10 15 15 13 9 19 10 17 5 18 3h24l20-4 16-6 14-7 14-10 7-6v-2l4-2v-2h2l11-14 9-15 6-15 5-21 1-7v-24l-4-21-6-17-8-15-9-13-8-9-8-7-17-12-21-10-19-5-10-2z" fill="#B12B27"/>
<path transform="translate(929,242)" d="m0 0h57l1 1 1 170 25 6 24 10 17 9 18 13 15 14 9 9 10 13 11 18 9 19 7 21 4 20 2 16v23l-4 27-6 21-6 15-8 16-9 14-10 13-21 21-12 9-14 9-19 10-20 7-20 5h-3v119l7-4 14-10 43-30 19-13 42-30 25-17 14-10 19-13 16-12 19-13 17-12 16-11 17-12 16-11 18-13 17-12 10-7 10-6 13-2 11 2 8 6 7 8 4 9 1 9-3 10-7 9-9 8-16 11-23 16-16 11-17 12-18 13-22 15-20 14-17 12-14 10-17 12-25 17-17 12-18 13-30 21-46 32-16 11-14 8-8 3-9 2-1 355-5 10-9 10-9 12-9 13-28 40-16 23-7 10-13 19-12 16-12 18-10 14-7 10-8 12-10 14-36 51-11 16-16 23-11 16-13 18-9 13-9 12-9 6-7 2h-11l-12-5-7-6-7-14v-11l5-12 12-17 16-23 13-18 12-18 13-18 11-16 14-20 10-14 13-19 14-20 12-17 13-18 8-12 16-23 11-16 13-18 13-19 10-14 14-20 9-12 1-3 1-331h-6l-16-8-38-26-23-16-28-20-16-11-17-12-20-14-16-11-23-16-18-13-19-13-20-14-18-13-19-13-17-12-18-13-16-11-13-9-10-9-5-7-2-6v-12l4-10 4-6 7-6 7-3 10-1 11 2 11 7 17 12 14 10 20 14 17 12 29 20 18 13 20 14 19 13 17 12 20 14 14 10 16 11 34 24 16 11 18 13 6 4 19 13 9 7 1-117-16-3-17-5-20-9-14-8-19-14-15-14-12-13-12-17-11-21-7-18-5-19-4-25v-25l4-26 6-21 8-20 12-21 13-17 11-12 8-8 17-13 21-12 21-9 21-6 10-1v-149zm17 227-20 4-15 5-19 10-16 12-13 13-9 13-10 19-6 19-3 17v24l3 15 5 17 8 16 6 10 8 10 15 15 13 9 19 10 17 5 18 3h24l20-4 16-6 14-7 14-10 7-6v-2l4-2v-2h2l11-14 9-15 6-15 5-21 1-7v-24l-4-21-6-17-8-15-9-13-8-9-8-7-17-12-21-10-19-5-10-2z" fill="#040101"/>
<path transform="translate(234,194)" d="m0 0h1v1716l26-1 1296 1 9 3 8 6 6 9 2 8v21l-3 9-7 9-10 6-3 1h-1526l-11-6-7-8-3-8-1-4v-21l4-11 6-7 10-6 3-1h200z" fill="#FD4700"/>
<path transform="translate(952,109)" d="m0 0h11l9 3 9 8 5 10v37l-4 2h-46l-7-1-1-32 2-10 6-8 7-6z" fill="#030101"/>
</svg>
