<?xml version="1.0" encoding="UTF-8"?>
<svg version="1.1" viewBox="0 0 1745 2048" width="1280" height="1280" xmlns="http://www.w3.org/2000/svg">
<path transform="translate(285,87)" d="m0 0h1026l10 2 9 5 6 7 4 8 1 3v27l-6 12-7 7-8 4-4 1-576 1-9 11-392 392-1 1354 1239-1h73l11 2 9 6 6 7 4 9 1 5v19l-2 9-6 9-8 7-7 3-6 1h-1600l-11-4-8-7-7-14v-26l4-10 9-10 10-5 11-1h201v-1804l2-10 6-9 7-6zm53 76v296l4-2 7-8 284-284v-2z" fill="#B12A28"/>
<path transform="translate(337,603)" d="m0 0h1v1318l1239-1h73l11 2 9 6 6 7 4 9 1 5v19l-2 9-6 9-8 7-7 3-6 1h-1600l-11-4-8-7-7-14v-26l4-10 9-10 10-5 11-1h277z" fill="#FE4C02"/>
<path transform="translate(263,106)" d="m0 0 1 4 1 20-3 1v5h-1v-20z" fill="#E84612"/>
</svg>
