<?xml version="1.0" encoding="UTF-8"?>
<svg version="1.1" viewBox="0 0 1702 2048" width="1280" height="1280" xmlns="http://www.w3.org/2000/svg">
<path transform="translate(1006,48)" d="m0 0 10 2 9 4 7 6 3 7 4 29 1 10 1 2h37l55 1 34 1 95 1 35 1 8 4 7 8 5 11v22l-3 8-9 10-5 4-6 1-102 1-69 2-83 1v176l37 13 20 9 13 8 17 13 7 7 8 7 9 10 11 15 9 15 9 19 9 27 3 15 1 10v31l-2 18-6 23-11 27-9 16-13 18-7 7-7 8-15 14-15 11-19 10-31 12-17 6-1 1-1 55 1 64 54-36 22-15 44-30 17-12 19-13 18-13 24-16 16-12 22-15 23-16 22-15 54-36 14-8 11-3 9 1 8 4 7 7 6 13 1 7-3 9-10 10-30 23-72 52-20 14-23 16-34 24-16 11-14 10-16 11-14 10-19 13-25 17-14 10-18 12-22 15-15 10-19 11-10 5 1 335 3 5 11 14 10 14 28 40 12 17 14 20 12 17 16 23 9 13 12 17 14 20 12 17 11 16 13 19 9 13 12 17 22 33 29 43 12 19 3 10-2 8-5 8-8 7-9 4h-13l-10-5-8-9-14-19-16-21-13-19-8-11-16-23-10-14-9-13-21-30-13-19-28-40-9-13-12-17-13-19-13-18-8-12-12-17-10-13-5-6v-2l-4-2-5-2-11 16-10 14-14 20-12 17-10 14-21 30-9 13-12 17-7 10-12 17-9 13-14 20-16 23-12 17-10 14-12 17-20 28-13 19-13 17-7 6-9 4-7 1-11-4-9-6-7-10-2-6v-9l4-9 10-16 7-10 8-12 13-19 15-22 26-38 28-40 13-19 14-20 12-17 13-19 24-34 13-19 14-20 12-17 14-20 11-16 9-13 1-2 1-337-23-12-34-23-25-17-19-13-13-9-17-12-29-20-40-28-14-10-43-30-14-10-17-12-36-26-19-14-24-18-10-8-10-10-3-8 1-12 4-10 5-6 8-4 4-1h8l10 4 15 9 36 24 44 30 46 32 14 10 63 44 16 11 20 14 12 8 14 10 25 17 32 22 7 3 3-10v-108l-10-3-20-7-19-8-21-12-12-9-13-11-16-16-11-15-10-17-11-25-5-16-4-26v-43l4-25 5-16 10-23 8-14 12-17 12-13 13-12 18-13 30-15 22-8 12-4 5-4 1-5v-169h-188l-57-2-9 7-6 7-8 7-5 5-6 7-6 5-2 3h-2l-1 3-6 5-2 3h-2l-2 4-6 5-5 6h-2l-2 4-6 5-7 8-181 181-7 8-121 121-1 2-1 1309-1 20h1287l8 3 6 4 8 10 3 8v18l-3 9-9 10-8 4-7 2-13 1-247 1h-1301l-7-3-8-6-6-8-2-5v-27l3-10 6-5 9-4 5-1 98-2 24-1 80-2 1-7 1-474 1-183 1-214 1-656v-236l2-9 5-5 9-7 693-1 3-3 1-3 2-40 4-7 8-5zm-668 132-2 3v288l1 3 5-2 7-7 7-8 15-16 192-192 7-8 24-24 7-8 12-13 6-5 2-6-7-2-80-2zm648 238-15 3-21 9-16 10-10 9-8 7-9 11-9 14-7 14-6 17-2 8-1 13v24l2 15 6 20 8 17 12 17 12 13 11 9 14 9 16 8 13 5 5 1h51l21-6 17-9 13-9 13-11 7-7 9-11 12-19 6-13 5-21v-44l-5-20-7-16-10-16-8-9-7-8-14-11-15-10-19-8-14-4-8-1z" fill="#BC2525"/>
<path transform="translate(1030,181)" d="m0 0 8 1 1 176 1 2 37 13 20 9 13 8 17 13 7 7 8 7 9 10 11 15 9 15 9 19 9 27 3 15 1 10v31l-2 18-6 23-11 27-9 16-13 18-7 7-7 8-15 14-15 11-19 10-31 12-17 6-1 1-1 55 1 64 54-36 22-15 44-30 17-12 19-13 18-13 24-16 16-12 22-15 23-16 22-15 54-36 14-8 11-3 9 1 8 4 7 7 6 13 1 7-3 9-10 10-30 23-72 52-20 14-23 16-34 24-16 11-14 10-16 11-14 10-19 13-25 17-14 10-18 12-22 15-15 10-19 11-10 5 1 335 3 5 11 14 10 14 28 40 12 17 14 20 12 17 16 23 9 13 12 17 14 20 12 17 11 16 13 19 9 13 12 17 22 33 29 43 12 19 3 10-2 8-5 8-8 7-9 4h-13l-10-5-8-9-14-19-16-21-13-19-8-11-16-23-10-14-9-13-21-30-13-19-28-40-9-13-12-17-13-19-13-18-8-12-12-17-10-13-5-6v-2l-4-2-5-2-11 16-10 14-14 20-12 17-10 14-21 30-9 13-12 17-7 10-12 17-9 13-14 20-16 23-12 17-10 14-12 17-20 28-13 19-13 17-7 6-9 4-7 1-11-4-9-6-7-10-2-6v-9l4-9 10-16 7-10 8-12 13-19 15-22 26-38 28-40 13-19 14-20 12-17 13-19 24-34 13-19 14-20 12-17 14-20 11-16 9-13 1-2 1-337-23-12-34-23-25-17-19-13-13-9-17-12-29-20-40-28-14-10-43-30-14-10-17-12-36-26-19-14-24-18-10-8-10-10-3-8 1-12 4-10 5-6 8-4 4-1h8l10 4 15 9 36 24 44 30 46 32 14 10 63 44 16 11 20 14 12 8 14 10 25 17 32 22 7 3 3-10v-108l-10-3-20-7-19-8-21-12-12-9-13-11-16-16-11-15-10-17-11-25-5-16-4-26v-43l4-25 5-16 10-23 8-14 12-17 12-13 13-12 18-13 30-15 22-8 12-4 5-4 1-5v-170zm-44 237-15 3-21 9-16 10-10 9-8 7-9 11-9 14-7 14-6 17-2 8-1 13v24l2 15 6 20 8 17 12 17 12 13 11 9 14 9 16 8 13 5 5 1h51l21-6 17-9 13-9 13-11 7-7 9-11 12-19 6-13 5-21v-44l-5-20-7-16-10-16-8-9-7-8-14-11-15-10-19-8-14-4-8-1z" fill="#030101"/>
<path transform="translate(260,1902)" d="m0 0h75l1 4h1287l8 3 6 4 8 10 3 8v18l-3 9-9 10-8 4-7 2-13 1-247 1h-1301l-7-3-8-6-6-8-2-5v-27l3-10 6-5 9-4 5-1 98-2 24-1z" fill="#FF4300"/>
<path transform="translate(333,181)" d="m0 0 3 3 1 11v283l-4 4h-2v2h-2v2l-5 5-10 9-12 9h-4v3l-5 2-4 1-1 2-4 3-6-4-4-18-2-2h2l-1-7h-3v95l1 33 1 448-1 5 2-1 1-5-1-4 2-8-2-1 1-1v-13l-1-2 1-9-1-10 1-13-1-9 1-1-1-7 1-7v-34l-1-21v-227l1-17-1-4 1-9v-18l1-25 5-25 2-2 16-2 6-3 7-1 3-3 3-1h7l1-3 5-2 4-2v1321h-72l1-6 1-474 1-183 1-214 1-656v-136l1-7h2v-17l2-2h3l1-3h2l2-9 3-3h8l5-1 5 2 2-4 7-2h11v-2l6-1 4 1v-2z" fill="#A62B2B"/>
<path transform="translate(1006,48)" d="m0 0 10 2 9 4 7 6 3 7 4 29v10l-3 1h-56l2-43 4-7 8-5z" fill="#040101"/>
<path transform="translate(336,195)" d="m0 0h1v255l-1 10h-2l-1-142v-117h2z" fill="#CE2D1B"/>
<path transform="translate(269,1176)" d="m0 0h1v105l2 2h-2v61l-1 35-1 5 1 3v11l-1 2-1 7h-1l-1-95v-74l2-44 2-2h-2v-5h1z" fill="#BB2727"/>
<path transform="translate(1085,109)" d="m0 0h47l-4 2-7 1-25-1-11-1z" fill="#A62B2B"/>
<path transform="translate(266,1384)" d="m0 0 3 1v13l-1 2-1 7h-1z" fill="#BB2526"/>
<path transform="translate(269,202)" d="m0 0h2l1 8h-1l-1 15h-1z" fill="#B72526"/>
</svg>
