<?xml version="1.0" encoding="UTF-8"?>
<svg version="1.1" viewBox="0 0 1706 2048" width="1280" height="1280" xmlns="http://www.w3.org/2000/svg">
<path transform="translate(1016,111)" d="m0 0h8l10 3 8 6 6 10 1 3 1 38h247l9 4 8 7 5 10 1 4v22l-5 12-6 7-8 4-4 1-246 1-1 4v165l27 7 20 8 19 10 16 12 10 8 12 12 9 11 8 11 10 17 8 19 6 19 3 15 2 20v22l-4 26-4 15-6 16-8 16-7 12-12 16-11 12-9 9-10 8-15 10-25 13-24 8-9 2h-6l-1 537-4 10-4 5-10 6-7 2-11-1-9-4-5-4-7-11-1-4-1-351-13-3-15-10-25-17-18-13-15-10-15-11-22-15-17-12-20-14-17-12-16-11-15-11-28-19-15-11-15-10-11-8-23-16-18-13-19-13-13-9-11-8-7-7-6-12v-11l4-9 6-9 9-6 6-2h13l8 3 14 10 18 13 19 13 14 10 16 11 11 8 22 15 12 9 12 8 15 11 12 8 19 13 18 13 19 13 34 24 14 10 15 10 17 12 11 8 16 11 1-116h-7l-15-4-15-5-17-8-15-9-14-10-10-9-16-16-13-18-12-22-9-23-3-12-3-16-1-6v-36l5-26 6-20 8-18 11-19 16-20 16-16 13-10 18-11 16-8 20-7 18-4h3v-170h-234l-4 1-2 4-374 374v1272h1239l10 5 5 5 5 7 2 6 1 17-2 12-6 10-7 6-7 3-57 1h-1342l-114-1-9-4-5-5-5-8-3-9v-17l3-10 5-8 8-7 6-3h200v-1702l5-10 7-7 8-4h667v-36l4-9 4-6 7-6zm-638 131-2 1v276l4-2 272-272-1-3zm630 226-17 3-15 5-16 8-11 7-10 8-14 14-9 14-8 16-6 18-3 20v19l4 23 6 16 8 15 10 14 9 10 8 7 13 9 16 8 18 6 15 3 13 1 16-1 22-5 15-6 15-8 9-7 14-12 8-10 6-9 8-16 5-14 4-17 1-8v-23l-2-7-2-11-2-5-2-8-11-21-8-11-11-12-12-10-18-11-20-8-14-3-8-1z" fill="#B22C28"/>
<path transform="translate(996,243)" d="m0 0h52l1 1 1 168 27 7 20 8 19 10 16 12 10 8 12 12 9 11 8 11 10 17 8 19 6 19 3 15 2 20v22l-4 26-4 15-6 16-8 16-7 12-12 16-11 12-9 9-10 8-15 10-25 13-24 8-9 2h-6l-1 537-4 10-4 5-10 6-7 2-11-1-9-4-5-4-7-11-1-4-1-351-13-3-15-10-25-17-18-13-15-10-15-11-22-15-17-12-20-14-17-12-16-11-15-11-28-19-15-11-15-10-11-8-23-16-18-13-19-13-13-9-11-8-7-7-6-12v-11l4-9 6-9 9-6 6-2h13l8 3 14 10 18 13 19 13 14 10 16 11 11 8 22 15 12 9 12 8 15 11 12 8 19 13 18 13 19 13 34 24 14 10 15 10 17 12 11 8 16 11 1-116h-7l-15-4-15-5-17-8-15-9-14-10-10-9-16-16-13-18-12-22-9-23-3-12-3-16-1-6v-36l5-26 6-20 8-18 11-19 16-20 16-16 13-10 18-11 16-8 20-7 18-4h3l1-169zm12 225-17 3-15 5-16 8-11 7-10 8-14 14-9 14-8 16-6 18-3 20v19l4 23 6 16 8 15 10 14 9 10 8 7 13 9 16 8 18 6 15 3 13 1 16-1 22-5 15-6 15-8 9-7 14-12 8-10 6-9 8-16 5-14 4-17 1-8v-23l-2-7-2-11-2-5-2-8-11-21-8-11-11-12-12-10-18-11-20-8-14-3-8-1z" fill="#030101"/>
<path transform="translate(304,1893)" d="m0 0h72l3 1h1237l10 5 5 5 5 7 2 6 1 17-2 12-6 10-7 6-7 3-57 1h-1342l-114-1-9-4-5-5-5-8-3-9v-17l3-10 5-8 8-7 6-3z" fill="#FE4600"/>
<path transform="translate(1016,111)" d="m0 0h8l10 3 8 6 6 10 1 3v37l-18 1h-33l-6-1-1-4v-31l4-9 4-6 7-6z" fill="#040101"/>
</svg>
