<?xml version="1.0" encoding="UTF-8"?>
<svg version="1.1" viewBox="0 0 1666 2048" width="1280" height="1280" xmlns="http://www.w3.org/2000/svg">
<path transform="translate(979,93)" d="m0 0h14l8 3 8 7 5 8 1 3 1 12v25l-1 2h251l10 4 8 7 6 13 1 8v13l-2 9-6 9-8 7-8 3h-251v173l15 3 17 5 20 9 13 7 13 9 11 9 3 2v2l4 2 8 8 7 8 10 13 12 20 8 18 7 23 3 15 1 8v42l-4 21-6 20-8 19-8 14-9 13-14 17-8 8-11 9-12 9-13 8-26 12-24 7-17 3-13 1h-20l-19-2-21-5-17-6-19-9-15-9-14-10-17-16-10-11-14-21-12-23-7-21-3-10-3-20-1-13v-11l1-17 4-22 7-22 5-13 11-20 12-17 9-10 6-7 8-7 14-11 13-8 21-11 20-7 17-4 5-1v-173l-239 1-385 385-1 2-1 1295 1247-1 16 1 8 4 6 5 6 9 2 8v21l-3 9-7 9-8 5-4 2h-1539l-12-6-5-6-4-8-1-3v-26l4-10 7-7 11-6 9-1h48l146 1v-1732l4-10 7-8 12-6h676v-18l1-21 6-11 7-7zm-648 133-1 1v281l4-2 276-276 1-3-1-1zm640 230-19 4-16 6-17 9-14 11-14 14-11 15-10 21-5 16-3 17v22l4 20 5 15 8 17 12 17 14 14 13 10 21 11 15 5 15 3 8 1h20l23-5 14-5 21-11 17-14 8-8 10-14 8-14 6-16 3-12 2-12v-25l-3-21-3-9-7-16-12-18-9-10-9-9-15-11-16-8-12-5-25-5z" fill="#B22B27"/>
<path transform="translate(257,1907)" d="m0 0h73v2l1247-1 16 1 8 4 6 5 6 9 2 8v21l-3 9-7 9-8 5-4 2h-1539l-12-6-5-6-4-8-1-3v-26l4-10 7-7 11-6 9-1h48l146 1z" fill="#FE4800"/>
<path transform="translate(957,227)" d="m0 0h58l1 17v155l15 3 17 5 20 9 13 7 13 9 11 9 3 2v2l4 2 8 8 7 8 10 13 12 20 8 18 7 23 3 15 1 8v42l-4 21-6 20-8 19-8 14-9 13-14 17-8 8-11 9-12 9-13 8-26 12-24 7-17 3-13 1h-20l-19-2-21-5-17-6-19-9-15-9-14-10-17-16-10-11-14-21-12-23-7-21-3-10-3-20-1-13v-11l1-17 4-22 7-22 5-13 11-20 12-17 9-10 6-7 8-7 14-11 13-8 21-11 20-7 17-4 5-1v-91zm14 229-19 4-16 6-17 9-14 11-14 14-11 15-10 21-5 16-3 17v22l4 20 5 15 8 17 12 17 14 14 13 10 21 11 15 5 15 3 8 1h20l23-5 14-5 21-11 17-14 8-8 10-14 8-14 6-16 3-12 2-12v-25l-3-21-3-9-7-16-12-18-9-10-9-9-15-11-16-8-12-5-25-5z" fill="#030101"/>
<path transform="translate(979,93)" d="m0 0h14l8 3 8 7 5 8 1 3 1 12v25l-3 3h-46l-10-1-1-2v-16l1-21 6-11 7-7z" fill="#040101"/>
</svg>
