<!DOCTYPE svg PUBLIC "-//W3C//DTD SVG 1.1//EN" "http://www.w3.org/Graphics/SVG/1.1/DTD/svg11.dtd">
<!-- Uploaded to: SVG Repo, www.svgrepo.com, Transformed by: SVG Repo Mixer Tools -->
<svg height="256px" width="256px" version="1.1" id="Layer_1" xmlns="http://www.w3.org/2000/svg" xmlns:xlink="http://www.w3.org/1999/xlink" viewBox="0 0 512 512" xml:space="preserve" fill="#000000" stroke="#000000" stroke-width="3.5840000000000005">
<g id="SVGRepo_bgCarrier" stroke-width="0"/>
<g id="SVGRepo_tracerCarrier" stroke-linecap="round" stroke-linejoin="round"/>
<g id="SVGRepo_iconCarrier"> <path style="fill:#C6C5CB;" d="M324.527,42.109l-1.595-2.01c-3.212-4.047-6.894-7.698-10.969-10.875 C296.43,16.287,276.746,9.162,256.539,9.162c-47.846,0-86.771,38.925-86.771,86.771v107.589v1.637v85.334v7.914v45.981h43.116 v-31.504l42.067-45.305l44.378,44.364l-0.213,32.445h43.116l1.078-45.98V172.421v-1.577V95.933 C343.309,76.201,336.815,57.59,324.527,42.109z"/> <path style="fill:#ACABB1;" d="M343.309,172.421v-1.577V95.933c0-19.732-6.494-38.343-18.782-53.824l-1.595-2.01 c-3.116-3.926-6.682-7.47-10.612-10.58v314.868h29.912l1.078-45.98V172.421z"/> <path style="fill:#E0E0E3;" d="M324.527,42.109l-1.595-2.01c-1.6-2.016-3.317-3.933-5.14-5.743L169.768,203.522v1.636v85.335v7.914 v13.644l32.337,10.779l141.204-150.408v-1.577V95.933C343.309,76.201,336.815,57.59,324.527,42.109z"/> <path style="fill:#D8D7DA;" d="M324.527,42.109l-1.595-2.01c-1.6-2.016-3.317-3.933-5.14-5.743l-5.471,6.253v164.822l30.989-33.009 v-1.577V95.933C343.309,76.201,336.815,57.59,324.527,42.109z"/> <path style="fill:#ED8800;" d="M364.867,332.532v-36.753c0-3.197-3.193-5.409-6.186-4.287l-78.154,29.314 c-1.787,0.67-2.971,2.378-2.971,4.287v93.102c0,47.771,38.146,87.41,85.914,87.873c48.238,0.467,87.629-38.637,87.629-86.767 C451.099,371.637,412.464,332.825,364.867,332.532z M364.328,461.878c-23.477,0-42.577-19.1-42.577-42.577 c0-23.477,19.1-42.577,42.577-42.577c23.477,0,42.577,19.1,42.577,42.577C406.905,442.778,387.805,461.878,364.328,461.878z"/> <path style="fill:#CC7400;" d="M363.789,366.484c-28.231,0-51.2,22.969-51.2,51.2c0,28.231,22.969,51.2,51.2,51.2 s51.2-22.969,51.2-51.2C414.989,389.453,392.021,366.484,363.789,366.484z M363.789,452.716c-19.317,0-35.032-15.716-35.032-35.032 s15.715-35.032,35.032-35.032c19.317,0,35.032,15.716,35.032,35.032S383.106,452.716,363.789,452.716z"/> <path style="fill:#FFFFFF;" d="M256.539,204.261c-12.185,0-22.097-9.912-22.097-22.097s9.912-22.097,22.097-22.097 c12.185,0,22.097,9.912,22.097,22.097S268.723,204.261,256.539,204.261z"/> <path style="fill:#ACABB1;" d="M256,150.905c-16.345,0-29.642,13.297-29.642,29.642s13.297,29.642,29.642,29.642 c16.344,0,29.642-13.297,29.642-29.642S272.344,150.905,256,150.905z M256,194.021c-7.43,0-13.474-6.044-13.474-13.474 s6.044-13.474,13.474-13.474c7.43,0,13.474,6.044,13.474,13.474S263.43,194.021,256,194.021z"/> <path style="fill:#ED8800;" d="M61.979,419.301c0,48.912,40.681,88.502,89.984,86.712c46.826-1.7,83.557-40.931,83.557-87.788 v-93.132c0-1.908-1.184-3.616-2.971-4.287l-78.154-29.314c-2.993-1.122-6.186,1.09-6.186,4.287v36.753 C100.614,332.825,61.979,371.637,61.979,419.301z M106.346,423.187c-2.364-26.525,19.764-48.653,46.289-46.289 c20.332,1.812,36.706,18.185,38.519,38.519c2.364,26.525-19.764,48.653-46.289,46.289 C124.531,459.892,108.158,443.519,106.346,423.187z"/> <path style="fill:#CC7400;" d="M97.011,417.684c0,28.231,22.969,51.2,51.2,51.2s51.2-22.969,51.2-51.2 c0-28.231-22.969-51.2-51.2-51.2S97.011,389.453,97.011,417.684z M183.242,417.684c0,19.316-15.716,35.032-35.032,35.032 S113.179,437,113.179,417.684s15.716-35.032,35.032-35.032S183.242,398.368,183.242,417.684z"/> <path d="M371.874,323.711v-35.374c0-2.652-1.3-5.134-3.481-6.645c-2.178-1.51-4.96-1.857-7.443-0.925l-10.635,3.988V94.316 C350.316,42.31,308.006,0,256,0s-94.316,42.31-94.316,94.316v190.439l-10.636-3.988c-2.482-0.931-5.264-0.585-7.443,0.925 c-2.18,1.51-3.479,3.994-3.479,6.645v35.374c-48.236,4.114-86.232,44.689-86.232,93.973c0,52.006,42.31,94.316,94.316,94.316 s94.316-42.31,94.316-94.316v-97.011c0-3.37-2.09-6.387-5.246-7.569l-12.123-4.547l29.461-31.728l31.863,31.863l-11.762,4.411 c-3.155,1.184-5.245,4.199-5.245,7.569v97.011c0,52.006,42.31,94.316,94.316,94.316s94.316-42.31,94.316-94.316 C458.105,368.402,420.109,327.827,371.874,323.711z M226.358,326.275v91.409c0,43.091-35.056,78.147-78.147,78.147 s-78.147-35.056-78.147-78.147s35.056-78.147,78.147-78.147c4.465,0,8.084-3.62,8.084-8.084v-31.451L226.358,326.275z M208.791,302.421l-30.939-11.602v-85.675l91.838-104.958c2.767-3.163,2.623-7.931-0.342-10.908 c-0.038-0.039-0.077-0.077-0.114-0.115c-3.276-3.29-8.648-3.126-11.705,0.368l-79.677,91.061V95.448 c0-43.096,35.256-79.39,78.352-79.279c18.883,0.049,36.208,6.834,49.707,18.068l-24.96,28.526 c-2.777,3.173-2.607,7.949,0.371,10.934c0.038,0.039,0.077,0.077,0.114,0.115c3.267,3.276,8.63,3.088,11.677-0.395l24.122-27.568 c10.573,13.332,16.911,30.168,16.911,48.466v73.107L208.791,302.421z M265.629,264.975l68.519-73.791v97.153 c0,0.818,0.124,1.606,0.349,2.351l-31.385,11.77L265.629,264.975z M363.789,495.832c-43.091,0-78.147-35.056-78.147-78.147v-91.409 l70.063-26.274v31.451c0,4.465,3.618,8.084,8.084,8.084c43.091,0,78.147,35.056,78.147,78.147S406.88,495.832,363.789,495.832z"/> <path d="M97.011,417.684c0,28.231,22.969,51.2,51.2,51.2s51.2-22.969,51.2-51.2c0-28.231-22.969-51.2-51.2-51.2 S97.011,389.453,97.011,417.684z M183.242,417.684c0,19.316-15.716,35.032-35.032,35.032S113.179,437,113.179,417.684 s15.716-35.032,35.032-35.032S183.242,398.368,183.242,417.684z"/> <path d="M363.789,366.484c-28.231,0-51.2,22.969-51.2,51.2c0,28.231,22.969,51.2,51.2,51.2s51.2-22.969,51.2-51.2 C414.989,389.453,392.021,366.484,363.789,366.484z M363.789,452.716c-19.317,0-35.032-15.716-35.032-35.032 s15.715-35.032,35.032-35.032c19.317,0,35.032,15.716,35.032,35.032S383.106,452.716,363.789,452.716z"/> <path d="M256,150.905c-16.345,0-29.642,13.297-29.642,29.642s13.297,29.642,29.642,29.642c16.344,0,29.642-13.297,29.642-29.642 S272.344,150.905,256,150.905z M256,194.021c-7.43,0-13.474-6.044-13.474-13.474s6.044-13.474,13.474-13.474 c7.43,0,13.474,6.044,13.474,13.474S263.43,194.021,256,194.021z"/> </g>
</svg>