<!DOCTYPE svg PUBLIC "-//W3C//DTD SVG 1.1//EN" "http://www.w3.org/Graphics/SVG/1.1/DTD/svg11.dtd">
<!-- Uploaded to: SVG Repo, www.svgrepo.com, Transformed by: SVG Repo Mixer Tools -->
<svg version="1.1" id="Layer_1" xmlns="http://www.w3.org/2000/svg" xmlns:xlink="http://www.w3.org/1999/xlink" viewBox="0 0 512.001 512.001" xml:space="preserve" width="256px" height="256px" fill="#000000" stroke="#000000" stroke-width="1.5360029999999998">
<g id="SVGRepo_bgCarrier" stroke-width="0"/>
<g id="SVGRepo_tracerCarrier" stroke-linecap="round" stroke-linejoin="round"/>
<g id="SVGRepo_iconCarrier"> <path style="fill:#ACABB1;" d="M119.576,504.206c-6.485,0-12.186-4.142-14.187-10.307l-5.356-16.517l28.428-55.718l41.989,18.119 l-29.764,58.339l-16.516,5.356C122.679,503.962,121.136,504.206,119.576,504.206z"/> <path style="fill:#898790;" d="M128.462,421.664l-6.354,12.452l18.799,8.112l-29.733,57.482c2.551,4.816,2.801,4.496,8.403,4.496 c1.558,0,3.103-0.244,4.594-0.727l16.516-5.356l29.764-58.339L128.462,421.664z"/> <path style="fill:#3E3D43;" d="M150.776,462.005c-5.315,0-10.637-1.281-15.389-3.707c-16.673-8.509-23.318-28.995-14.812-45.671 l80.263-164.519l60.697,31.833l-40.843,85.865l-5.366,0.076c-12.219,0.174-23.256,7.037-28.804,17.912 c-5.548,10.876-4.627,23.839,2.402,33.834l3.088,4.389l-10.954,21.47C175.23,454.909,163.627,462.005,150.776,462.005z"/> <path style="fill:#2E2D30;" d="M200.697,248.249l-7.28,14.922l29.542,14.392l-38.278,87.039l-26.999,57.037l-10.312,21.786 c-2.913,6.154-7.5,11.121-13.076,14.499c0.315,0.174,0.627,0.351,0.951,0.515c4.753,2.425,10.074,3.707,15.389,3.707 c12.851,0,24.455-7.096,30.282-18.52l10.954-21.47l-3.088-4.389c-7.029-9.995-7.951-22.958-2.402-33.834 c5.548-10.875,16.585-17.738,28.804-17.912l5.366-0.076l40.843-85.865L200.697,248.249z"/> <polygon style="fill:#ACABB1;" points="308.196,373.15 350.169,355.055 383.479,421.669 342.732,442.228 "/> <polygon style="fill:#898790;" points="350.169,355.056 325.632,366.851 354.525,423.668 337.695,432.154 342.732,442.228 383.479,421.669 "/> <path style="fill:#3E3D43;" d="M251.075,283.805l62.187-27.459l50.598,101.2c1.906,3.812,0.361,8.447-3.451,10.353l-46.925,23.463 c-3.811,1.906-8.447,0.361-10.353-3.451L251.075,283.805z"/> <path style="fill:#2E2D30;" d="M363.862,357.546l-50.6-101.2l-62.187,27.458l5.649,11.298l31.84-14.06l49.11,98.224l22.735-11.367 C364.222,365.994,365.767,361.359,363.862,357.546z"/> <rect x="223.101" y="54.542" style="fill:#ACABB1;" width="67.899" height="116.153"/> <rect x="257.05" y="54.542" style="fill:#898790;" width="33.95" height="116.153"/> <path style="fill:#3E3D43;" d="M200.838,86.822V36.455c0-15.805,12.859-28.664,28.664-28.664h55.097 c15.805,0,28.664,12.859,28.664,28.664v50.367H200.838z"/> <path style="fill:#2E2D30;" d="M284.599,7.792h-33.95c15.805,0,28.664,12.859,28.664,28.664v50.367h33.95V36.455 C313.262,20.65,300.404,7.792,284.599,7.792z"/> <path style="fill:#3E3D43;" d="M256.001,309.444c-49.409,0-89.605-40.197-89.605-89.605s40.197-89.605,89.605-89.605 s89.605,40.197,89.605,89.605S305.409,309.444,256.001,309.444z"/> <path style="fill:#2E2D30;" d="M256.001,130.233c-6.021,0-11.902,0.607-17.594,1.744c41.011,8.199,72.012,44.473,72.012,87.861 s-31,79.662-72.012,87.861c5.691,1.138,11.572,1.744,17.594,1.744c49.409,0,89.605-40.197,89.605-89.605 S305.409,130.233,256.001,130.233z"/> <path style="fill:#ACABB1;" d="M371.148,499.06l-20.38-40.76l40.76-20.531l20.44,40.88c0,0-9.171,21.184-13.77,23.483 C395.533,503.466,371.148,499.06,371.148,499.06z"/> <path style="fill:#898790;" d="M391.528,437.769l-40.76,20.531l1.08,2.159l17.488-7.328l21.198,38.945c0,0-6.62,5.394-8.249,8.814 c6.811,1.021,14.484,1.957,15.912,1.241c4.599-2.299,13.77-23.483,13.77-23.483L391.528,437.769z"/> <path style="fill:#3E3D43;" d="M329.293,440.238c-1.821-3.642-0.345-8.071,3.297-9.893l47.54-23.771 c3.642-1.821,8.072-0.345,9.893,3.297l13.815,27.628c1.821,3.642,0.345,8.072-3.297,9.893L353,471.163 c-3.642,1.821-8.072,0.345-9.893-3.298L329.293,440.238z"/> <path style="fill:#2E2D30;" d="M403.838,437.499l-13.815-27.627c-1.821-3.642-6.251-5.119-9.893-3.297l-25.713,12.857 c2.563,0.147,4.983,1.742,6.213,4.417l13.815,30.042c0.955,2.076,0.996,4.385,0.301,6.4l25.794-12.898 C404.183,445.571,405.66,441.142,403.838,437.499z"/> <path style="fill:#FFFFFF;" d="M257.05,253.788c-18.719,0-33.95-15.231-33.95-33.95s15.231-33.95,33.95-33.95 S291,201.119,291,219.839S275.771,253.788,257.05,253.788z"/> <path d="M257.05,178.097c-23.017,0-41.741,18.725-41.741,41.741s18.725,41.741,41.741,41.741s41.741-18.725,41.741-41.741 S280.067,178.097,257.05,178.097z M257.05,244.883c-13.809,0-25.045-11.236-25.045-25.045s11.236-25.045,25.045-25.045 s25.045,11.236,25.045,25.045S270.859,244.883,257.05,244.883z"/> <path d="M418.834,474.959l-11.2-22.401l2.49-1.244c4.123-2.063,5.795-7.076,3.733-11.201l-19.912-39.824 c-0.991-1.979-2.726-3.486-4.826-4.186c-2.102-0.699-4.392-0.536-6.375,0.453l-2.489,1.244l-12.445-24.889l2.489-1.244 c4.123-2.063,5.795-7.076,3.733-11.201l-39.823-79.648c-0.159-0.318-0.344-0.62-0.541-0.912 c13.011-16.559,20.778-37.424,20.778-60.068c0-38.803-22.811-72.374-55.725-88.02c0.041-0.337,0.07-0.68,0.07-1.029V94.614h13.914 c4.612,0,8.348-3.737,8.348-8.348v-49.81C321.054,16.354,304.7,0,284.599,0h-55.097c-20.102,0-36.455,16.354-36.455,36.455v49.81 c0,4.612,3.737,8.348,8.348,8.348h13.914v36.176c0,0.348,0.028,0.691,0.07,1.029c-32.915,15.646-55.725,49.217-55.725,88.02 c0,22.36,7.579,42.982,20.296,59.439c-0.199,0.293-0.388,0.593-0.551,0.912l-65.765,128.897 c-5.207,10.207-5.795,21.576-2.543,31.711c-1.114,0.762-2.06,1.805-2.716,3.093l-15.177,29.746 c-1.006,1.971-1.188,4.263-0.504,6.369l5.285,16.298c3.11,9.587,12.034,15.699,21.61,15.698c2.314,0,4.668-0.356,6.986-1.109 l16.297-5.286c2.106-0.682,3.854-2.174,4.86-4.147l15.176-29.746c0.66-1.293,0.949-2.677,0.909-4.033 c10.113-3.317,18.976-10.449,24.182-20.654l10.984-21.53c1.607-3.151,1.054-6.974-1.38-9.539 c-7.291-7.684-8.955-19.187-4.141-28.625c4.814-9.437,15.108-14.842,25.605-13.446c3.514,0.466,6.928-1.329,8.535-4.481 l26.16-51.274c0.157-0.308,0.287-0.623,0.403-0.941c0.958,0.028,1.92,0.047,2.885,0.047c0.7,0,1.398-0.012,2.095-0.027 c0.114,0.321,0.24,0.638,0.394,0.945l39.824,79.647c1.461,2.925,4.411,4.616,7.473,4.616c1.255,0,2.528-0.285,3.728-0.884 l2.489-1.244l12.445,24.89l-2.489,1.244c-4.123,2.063-5.795,7.076-3.733,11.2l19.911,39.824c0.991,1.98,2.726,3.487,4.826,4.188 c0.859,0.286,1.751,0.429,2.64,0.429c1.283,0,2.564-0.297,3.733-0.882l2.489-1.244l11.201,22.401 c0.991,1.979,2.726,3.486,4.826,4.186l12.131,4.044c2.809,0.937,5.7,1.401,8.579,1.401c4.141,0,8.256-0.962,12.068-2.868 c6.462-3.23,11.278-8.785,13.562-15.637l4.044-12.131C419.987,479.231,419.824,476.939,418.834,474.959z M209.743,77.917V36.455 c0-10.913,8.846-19.759,19.759-19.759h55.097c10.913,0,19.759,8.846,19.759,19.759v41.462h-30.183c-4.61,0-8.348,3.738-8.348,8.348 c0,4.61,3.738,8.348,8.348,8.348h7.921v31.098c-7.995-2.129-16.388-3.27-25.045-3.27c-8.657,0-17.049,1.141-25.045,3.27V94.614h5.36 c4.61,0,8.348-3.738,8.348-8.348c0-4.61-3.738-8.348-8.348-8.348H209.743z M134.431,490.79l-13.008,4.219 c-3.147,1.02-6.542-0.709-7.564-3.858l-4.218-13.008l10.898-21.361c3.177,3.355,6.961,6.238,11.306,8.455 c4.347,2.217,8.903,3.584,13.484,4.186L134.431,490.79z M215.2,356.977c-15.293,0.217-29.517,8.867-36.61,22.769 c-7.093,13.902-5.748,30.495,3.051,43.004l-8.514,16.689c-6.277,12.302-21.389,17.205-33.693,10.927 c-12.301-6.277-17.202-21.391-10.926-33.693l61.971-121.46l44.618,22.765L215.2,356.977z M257.05,300.539 c-44.499,0-80.7-36.202-80.7-80.7s36.202-80.7,80.7-80.7s80.7,36.202,80.7,80.7S301.549,300.539,257.05,300.539z M310.564,382.866 l-32.357-64.713l44.801-22.401l32.356,64.714L310.564,382.866z M345.581,384.025l7.294-3.647l12.446,24.889l-24.889,12.446 l-12.445-24.889L345.581,384.025z M352.883,461.266c-0.002,0.001-0.006,0.002-0.008,0.003c-0.002,0.001-0.006,0.003-0.008,0.004 l-2.48,1.24l-12.445-24.889l22.4-11.201l19.912-9.956c0.002-0.001,0.004-0.002,0.008-0.004l2.481-1.24l12.446,24.889l-2.489,1.244 l0,0l0,0L352.883,461.266z M399.403,488.184c-0.874,2.621-2.716,4.747-5.188,5.983c-2.472,1.237-5.276,1.437-7.9,0.561l-8.851-2.95 l-9.654-19.308l24.89-12.446l9.653,19.308L399.403,488.184z"/> </g>
</svg>