<!DOCTYPE svg PUBLIC "-//W3C//DTD SVG 1.1//EN" "http://www.w3.org/Graphics/SVG/1.1/DTD/svg11.dtd">
<!-- Uploaded to: SVG Repo, www.svgrepo.com, Transformed by: SVG Repo Mixer Tools -->
<svg height="256px" width="256px" version="1.1" id="Layer_1" xmlns="http://www.w3.org/2000/svg" xmlns:xlink="http://www.w3.org/1999/xlink" viewBox="0 0 512.001 512.001" xml:space="preserve" fill="#000000" stroke="#000000" stroke-width="3.5840070000000006">
<g id="SVGRepo_bgCarrier" stroke-width="0"/>
<g id="SVGRepo_tracerCarrier" stroke-linecap="round" stroke-linejoin="round"/>
<g id="SVGRepo_iconCarrier"> <polygon style="fill:#E0E0E3;" points="148.232,256.217 280.753,40.699 425.883,186.905 329.031,186.905 207.48,307.378 "/> <polygon style="fill:#BABABA;" points="378.19,186.905 425.883,186.905 280.753,40.699 262.509,70.367 "/> <path style="fill:#ED8800;" d="M86.946,317.108c-5.166,0-10.021-2.008-13.669-5.657l-37.446-37.445 c-3.649-3.649-5.659-8.504-5.659-13.671c0-5.167,2.01-10.022,5.659-13.671L271.445,11.052c3.655-3.652,8.509-5.662,13.67-5.662 c5.162,0,10.016,2.01,13.669,5.661l37.447,37.445c7.537,7.54,7.537,19.805,0,27.342L100.617,311.451 C96.965,315.101,92.11,317.108,86.946,317.108z"/> <path style="fill:#CC7400;" d="M336.231,48.496l-37.447-37.445c-3.653-3.651-8.506-5.661-13.669-5.661 c-5.161,0-10.016,2.01-13.671,5.662l-23.817,23.817c3.655-3.651,8.509-5.66,13.669-5.66c5.162,0,10.016,2.01,13.669,5.661 l37.447,37.445c7.537,7.54,7.537,19.805,0,27.342L100.616,311.452c0,0,0,0,0.001,0L336.231,75.837 C343.769,68.301,343.769,56.035,336.231,48.496z"/> <path style="fill:#E0E0E3;" d="M198.883,420.379c-49.035,0-88.926-39.893-88.926-88.926s39.892-88.926,88.926-88.926 s88.926,39.893,88.926,88.926c0,2.658-0.126,5.324-0.384,8.084h93.584l68.484-68.485l1.078,193.521L198.883,420.379z"/> <polygon style="fill:#BABABA;" points="418.512,458.943 450.572,464.573 449.494,271.052 417.642,302.905 "/> <path style="fill:#ED8800;" d="M129.554,506.611c-10.805,0-19.596-8.79-19.596-19.596v-52.429c0-10.805,8.791-19.596,19.596-19.596 h332.681c10.805,0,19.596,8.79,19.596,19.596v52.43c0,10.805-8.79,19.596-19.596,19.596H129.554V506.611z"/> <path style="fill:#CC7400;" d="M462.236,414.989h-32.98c10.805,0,19.596,8.79,19.596,19.596v52.43 c0,10.805-8.79,19.596-19.596,19.596h32.98c10.805,0,19.596-8.79,19.596-19.596v-52.43 C481.831,423.78,473.041,414.989,462.236,414.989z"/> <path style="fill:#ACABB1;" d="M198.883,366.484c-19.316,0-35.032-15.715-35.032-35.032c0-19.317,15.716-35.032,35.032-35.032 s35.032,15.715,35.032,35.032C233.915,350.77,218.2,366.484,198.883,366.484z"/> <path d="M462.236,409.6h-7.351V277.558c0-3.269-1.969-6.218-4.991-7.469c-3.021-1.253-6.498-0.561-8.811,1.752l-62.306,62.307 h-85.62c0.028-0.906,0.042-1.805,0.042-2.695c0-27.725-12.026-52.691-31.133-69.963l69.195-69.195h88.114 c3.269,0,6.218-1.969,7.469-4.991c1.251-3.021,0.56-6.498-1.752-8.811l-91.948-91.948l6.896-6.896c0-0.001,0-0.001,0-0.001 c9.637-9.639,9.637-25.323-0.001-34.964L302.597,7.241C297.927,2.572,291.718,0,285.115,0c-6.603,0-12.812,2.572-17.481,7.241 L32.021,242.854c-4.669,4.671-7.241,10.879-7.241,17.482c0,6.603,2.572,12.812,7.241,17.482l37.445,37.445 c4.819,4.819,11.15,7.228,17.481,7.228c6.33,0,12.662-2.409,17.481-7.228l1.885-1.885c-1.14,5.852-1.745,11.893-1.745,18.074 c0,32.479,16.503,61.176,41.564,78.147h-16.578c-13.778,0-24.986,11.208-24.986,24.986v52.43c0,13.777,11.208,24.986,24.986,24.986 h332.681c13.777,0,24.986-11.208,24.986-24.986v-52.43C487.22,420.808,476.012,409.6,462.236,409.6z M399.86,176.126h-71.945 c-2.144,0-4.199,0.852-5.717,2.367l-73.135,73.135c-14.543-9.174-31.75-14.491-50.179-14.491c-6.181,0-12.222,0.605-18.074,1.745 L321.712,97.981L399.86,176.126z M92.995,303.829c-3.335,3.333-8.762,3.335-12.097,0l-37.445-37.445 c-3.335-3.335-3.335-8.762,0-12.097L279.067,18.673c1.616-1.615,3.764-2.505,6.048-2.505c2.285,0,4.432,0.89,6.049,2.506 l37.444,37.443c3.335,3.336,3.335,8.763,0,12.098L92.995,303.829z M471.052,487.014c0,4.87-3.947,8.817-8.817,8.817H129.553 c-4.87,0-8.817-3.947-8.817-8.817v-52.429c0-4.87,3.947-8.817,8.817-8.817h203.138c4.465,0,8.084-3.62,8.084-8.084 c0-4.465-3.62-8.084-8.084-8.084H199.88c-43.024,0-78.723-34.355-79.14-77.376c-0.421-43.443,34.797-78.919,78.143-78.919 c43.091,0,78.147,35.056,78.147,78.147c0,3.095-0.197,6.217-0.603,9.537c-0.172,1.416-0.069,2.876,0.462,4.199 c1.279,3.187,4.295,5.125,7.53,5.125h97.706c2.144,0,4.199-0.852,5.717-2.367l50.872-50.873V409.6h-70.379 c-4.465,0-8.084,3.62-8.084,8.084c0,4.465,3.62,8.084,8.084,8.084h93.899c4.87,0,8.817,3.947,8.817,8.817v52.429H471.052z"/> </g>
</svg>