<!DOCTYPE svg PUBLIC "-//W3C//DTD SVG 1.1//EN" "http://www.w3.org/Graphics/SVG/1.1/DTD/svg11.dtd">
<!-- Uploaded to: SVG Repo, www.svgrepo.com, Transformed by: SVG Repo Mixer Tools -->
<svg height="256px" width="256px" version="1.1" id="Layer_1" xmlns="http://www.w3.org/2000/svg" xmlns:xlink="http://www.w3.org/1999/xlink" viewBox="0 0 512.00 512.00" xml:space="preserve" fill="#000000" stroke="#000000" stroke-width="7.68">
<g id="SVGRepo_bgCarrier" stroke-width="0"/>
<g id="SVGRepo_tracerCarrier" stroke-linecap="round" stroke-linejoin="round"/>
<g id="SVGRepo_iconCarrier"> <path style="fill:#FFCE00;" d="M367.256,439.781c-10.609,0-20.507-4.812-27.155-13.202c-20.492-25.861-51.146-40.693-84.101-40.693 s-63.609,14.832-84.101,40.693c-6.648,8.39-16.547,13.202-27.155,13.202H72.699c-35.983,0-65.153-29.17-65.153-65.153V137.372 c0-35.983,29.17-65.153,65.153-65.153h72.045c10.609,0,20.507,4.812,27.155,13.202c20.492,25.861,51.146,40.693,84.101,40.693 s63.609-14.832,84.101-40.693c6.648-8.39,16.547-13.202,27.155-13.202h72.045c35.983,0,65.153,29.17,65.153,65.153v32.935v171.385 v32.935c0,35.983-29.17,65.153-65.153,65.153H367.256z"/> <path style="fill:#EDBF00;" d="M439.301,72.219h-31.798c35.983,0,65.153,29.17,65.153,65.153v32.935v171.385v32.935 c0,35.983-29.17,65.153-65.153,65.153h31.798c35.983,0,65.153-29.17,65.153-65.153v-32.935V170.307v-32.935 C504.455,101.389,475.285,72.219,439.301,72.219z"/> <path style="fill:#C6C5CB;" d="M212.884,342.771c-25.078,0-48.942-10.903-65.47-29.913l-9.664-13.203l366.705-1.078v44.194H212.884z "/> <path style="fill:#E0E0E3;" d="M137.75,299.655l-2.39-4.744c-6.135-12.178-9.246-25.27-9.246-38.911 c0-47.846,38.925-86.771,86.771-86.771h291.57v130.425H137.75z"/> <path style="fill:#3E3D43;" d="M320.674,267.318c-18.128,0-32.876-14.748-32.876-32.876s14.748-32.876,32.876-32.876 s32.876,14.748,32.876,32.876S338.802,267.318,320.674,267.318z"/> <polygon style="fill:#D8D7DA;" points="472.657,170.307 472.657,299.655 504.455,299.655 504.455,170.307 504.455,169.229 472.657,169.229 "/> <polygon style="fill:#ACABB1;" points="472.657,300.08 472.657,342.771 504.455,342.771 504.455,300.08 504.455,299.655 472.657,299.655 "/> <path d="M447.386,64.674h-80.13c-12.927,0-24.98,5.854-33.069,16.061c-19.053,24.045-47.551,37.834-78.187,37.834 s-59.134-13.79-78.188-37.834c-8.089-10.207-20.142-16.061-33.069-16.061H64.614C28.986,64.674,0,93.659,0,129.288v253.424 c0,35.629,28.986,64.614,64.614,64.614h80.13c12.927,0,24.98-5.854,33.069-16.061c19.054-24.044,47.552-37.834,78.188-37.834 s59.134,13.79,78.188,37.834c8.089,10.207,20.142,16.061,33.069,16.061h80.13c35.627,0,64.612-28.986,64.612-64.614V129.288 C512,93.659,483.014,64.674,447.386,64.674z M495.832,334.147H212.884c-23.518,0-44.625-10.457-58.963-26.947h341.91V334.147z M495.832,161.684h-75.398c-4.465,0-8.084,3.62-8.084,8.084c0,4.465,3.62,8.084,8.084,8.084h75.398v113.179H143.06 c-5.626-11.166-8.671-23.845-8.292-37.262c1.196-42.46,36.734-75.917,79.211-75.917H384.79c4.465,0,8.084-3.62,8.084-8.084 c0-4.465-3.62-8.084-8.084-8.084H214.075c-52.139,0-95.767,42.657-95.506,94.795c0.079,15.627,3.983,30.364,10.812,43.33 c0.208,2.438,1.497,4.565,3.388,5.904c16.662,26.754,46.341,44.602,80.115,44.602h282.947v32.396 c0,26.756-21.69,48.446-48.446,48.446h-80.13c-7.959,0-15.393-3.621-20.397-9.935c-22.138-27.937-55.255-43.96-90.859-43.96 s-68.721,16.023-90.859,43.96c-5.004,6.313-12.438,9.935-20.397,9.935h-80.13c-26.757,0-48.446-21.69-48.446-48.446V129.288 c0-26.755,21.689-48.446,48.446-48.446h80.13c7.959,0,15.393,3.621,20.397,9.935c22.138,27.937,55.255,43.96,90.859,43.96 s68.721-16.023,90.859-43.96c5.004-6.314,12.439-9.935,20.397-9.935h80.13c26.756,0,48.446,21.69,48.446,48.446V161.684z"/> <path d="M320.674,194.021c-22.289,0-40.421,18.132-40.421,40.421s18.132,40.421,40.421,40.421c22.289,0,40.421-18.132,40.421-40.421 S342.962,194.021,320.674,194.021z M320.674,258.695c-13.373,0-24.253-10.879-24.253-24.253c0-13.373,10.879-24.253,24.253-24.253 c13.373,0,24.253,10.879,24.253,24.253C344.926,247.816,334.047,258.695,320.674,258.695z"/> </g>
</svg>