<!DOCTYPE svg PUBLIC "-//W3C//DTD SVG 1.1//EN" "http://www.w3.org/Graphics/SVG/1.1/DTD/svg11.dtd">
<!-- Uploaded to: SVG Repo, www.svgrepo.com, Transformed by: SVG Repo Mixer Tools -->
<svg height="256px" width="256px" version="1.1" id="Layer_1" xmlns="http://www.w3.org/2000/svg" xmlns:xlink="http://www.w3.org/1999/xlink" viewBox="0 0 512.00 512.00" xml:space="preserve" fill="#000000" stroke="#000000" stroke-width="3.072">
<g id="SVGRepo_bgCarrier" stroke-width="0"/>
<g id="SVGRepo_tracerCarrier" stroke-linecap="round" stroke-linejoin="round"/>
<g id="SVGRepo_iconCarrier"> <path style="fill:#ED8800;" d="M260.99,187.464v11.946l5.1,14.381c4.951,13.963,18.224,23.345,33.027,23.345h107.789 c14.803,0,28.076-9.382,33.027-23.345l5.1-14.381v-11.946L260.99,187.464L260.99,187.464z"/> <path style="fill:#CC7400;" d="M409.061,187.464v11.946l-5.1,14.381c-4.951,13.963-18.224,23.345-33.027,23.345h35.97 c14.803,0,28.076-9.382,33.027-23.345l5.1-14.381v-11.946L409.061,187.464L409.061,187.464z"/> <path style="fill:#ACABB1;" d="M71.551,174.189L269.474,16.817v58.594l-8.346,1.934c-21.577,4.998-40.085,20.009-49.508,40.153 l-1.072,2.295l-109.961,88.752L71.551,174.189z"/> <path style="fill:#FFA733;" d="M264.084,105.634V31.182c0-14.223,11.57-25.793,25.793-25.793h126.268 c14.222,0,25.792,11.57,25.792,25.793v74.451H264.084z"/> <path style="fill:#FF9911;" d="M416.144,5.389h-32.876c14.223,0,25.793,11.57,25.793,25.793v74.451h32.876V31.182 C441.937,16.96,430.367,5.389,416.144,5.389z"/> <path style="fill:#FFB656;" d="M430.749,451.745c-2.23-24.658-13.558-47.515-31.893-64.36c-18.452-16.953-42.39-26.29-67.404-26.29 H223.663c-25.014,0-48.952,9.337-67.404,26.29c-18.335,16.845-29.663,39.702-31.893,64.36l-1.064,36.542h308.512L430.749,451.745z"/> <path style="fill:#FFA733;" d="M430.749,451.745c-2.23-24.658-13.558-47.515-31.893-64.36c-18.452-16.953-42.39-26.29-67.404-26.29 h-35.036c25.014,0,48.952,9.337,67.404,26.29c18.335,16.845,29.663,39.702,31.893,64.36l1.065,36.542h35.036L430.749,451.745z"/> <path style="fill:#FE5022;" d="M126.653,506.611c-13.372,0-24.253-10.88-24.253-24.253s10.88-24.253,24.253-24.253h301.811 c13.372,0,24.253,10.88,24.253,24.253s-10.88,24.253-24.253,24.253H126.653z"/> <path style="fill:#FF3501;" d="M428.463,458.105h-32.876c13.372,0,24.253,10.88,24.253,24.253s-10.88,24.253-24.253,24.253h32.876 c13.372,0,24.253-10.88,24.253-24.253S441.836,458.105,428.463,458.105z"/> <path style="fill:#FFB656;" d="M229.669,204.8c-16.685,0-30.259-13.574-30.259-30.259v-26.345c0-43.082,35.051-78.133,78.132-78.133 h150.934c43.082,0,78.133,35.051,78.133,78.132v26.345c0,16.686-13.574,30.26-30.259,30.26H229.669z"/> <path style="fill:#FFA733;" d="M428.478,70.063h-32.876c43.082,0,78.132,35.051,78.132,78.132v26.345 c0,16.685-13.574,30.259-30.259,30.259h32.876c16.685,0.001,30.259-13.573,30.259-30.258v-26.345 C506.611,105.114,471.56,70.063,428.478,70.063z"/> <path style="fill:#ACABB1;" d="M193.516,422.208c-7.649,0-14.676-3.836-18.796-10.26L63.785,243.071l40.731-25.512l107.759,170.306 c6.64,10.352,3.618,24.178-6.736,30.819C201.94,420.99,197.783,422.208,193.516,422.208z"/> <path style="fill:#3E3D43;" d="M61.979,269.474c-31.203,0-56.589-25.387-56.589-56.589s25.387-56.589,56.589-56.589 s56.589,25.387,56.589,56.589S93.182,269.474,61.979,269.474z"/> <path style="fill:#ECE5DD;" d="M61.979,237.137c-13.372,0-24.253-10.88-24.253-24.253c0-13.372,10.88-24.253,24.253-24.253 s24.253,10.88,24.253,24.253C86.232,226.257,75.351,237.137,61.979,237.137z"/> <path d="M61.979,183.242c-16.344,0-29.642,13.298-29.642,29.642s13.298,29.642,29.642,29.642s29.642-13.298,29.642-29.642 S78.323,183.242,61.979,183.242z M61.979,226.358c-7.43,0-13.474-6.044-13.474-13.474s6.044-13.474,13.474-13.474 c7.43,0,13.474,6.044,13.474,13.474S69.409,226.358,61.979,226.358z"/> <path d="M447.326,66.845V31.182C447.326,13.989,433.337,0,416.144,0H289.877c-11.178,0-20.996,5.915-26.502,14.777L85.83,155.685 c-7.346-3.075-15.402-4.779-23.851-4.779C27.803,150.905,0,178.708,0,212.884s27.803,61.979,61.979,61.979 c5.867,0,11.539-0.838,16.922-2.368l72.076,112.41c-18.988,18.175-30.426,42.662-32.167,68.871 c-12.549,3.448-21.799,14.951-21.799,28.581c0,16.344,13.298,29.642,29.642,29.642h301.811c16.344,0,29.642-13.298,29.642-29.642 c0-13.629-9.249-25.132-21.798-28.58c-3.626-54.687-49.265-98.072-104.854-98.072H223.663c-8.07,0-16.064,0.929-23.852,2.737 l-79.643-124.211c2.45-6.658,3.79-13.848,3.79-21.346c0-5.447-0.712-10.729-2.038-15.765l72.562-57.673 c-0.301,2.877-0.46,5.795-0.46,8.75v26.345c0,19.655,15.992,35.647,35.648,35.647h29.838c3.755,18.428,20.087,32.337,39.607,32.337 h107.789c19.521,0,35.852-13.909,39.607-32.337h29.838c19.659,0,35.65-15.992,35.65-35.648v-26.345 C512,108.624,484.329,75.416,447.326,66.845z M274.863,31.182c0-8.279,6.735-15.014,15.014-15.014h126.268 c8.278,0,15.013,6.735,15.013,15.014v33.491H274.863V31.182z M61.979,258.695c-25.26,0-45.811-20.55-45.811-45.811 s20.55-45.811,45.811-45.811s45.811,20.55,45.811,45.811S87.239,258.695,61.979,258.695z M223.663,371.874h107.789 c46.311,0,84.466,35.58,88.562,80.842h-52.799c-4.465,0-8.084,3.62-8.084,8.084c0,4.465,3.62,8.084,8.084,8.084h60.853 c7.012,0,13.15,5.193,13.807,12.175c0.755,8.011-5.554,14.773-13.412,14.773H127.047c-7.012,0-13.15-5.193-13.807-12.175 c-0.755-8.011,5.554-14.773,13.412-14.773h204.919c4.465,0,8.084-3.62,8.084-8.084c0-4.465-3.62-8.084-8.084-8.084H135.102 c1.84-20.312,10.583-39.281,24.799-53.893l10.28,16.033c5.283,8.239,14.229,12.74,23.36,12.739 c6.737-0.001,13.575-2.45,19.108-7.657c2.803-2.638,5.02-5.871,6.46-9.44c3.479-8.624,2.566-17.961-2.296-25.543l-7.627-11.896 C213.95,372.28,218.789,371.874,223.663,371.874z M203.203,393.683c3.432,5.351,1.869,12.496-3.481,15.927 c-5.351,3.429-12.497,1.869-15.929-3.482L93.926,265.974c6.734-4.067,12.63-9.382,17.378-15.617L203.203,393.683z M201.856,112.93 l-86.403,68.675c-3.849-6.555-8.864-12.34-14.763-17.072l158.004-125.4v27.712C233.472,72.688,212.596,89.973,201.856,112.93z M406.905,226.358H299.116c-10.54,0-19.53-6.758-22.868-16.168h153.525C426.436,219.599,417.445,226.358,406.905,226.358z M495.832,150.905h-45.811c-4.466,0-8.084,3.618-8.084,8.084c0,4.466,3.618,8.084,8.084,8.084h45.811v7.468 c0,10.741-8.738,19.48-19.48,19.48H229.669c-10.741,0-19.48-8.738-19.48-19.48v-7.468h185.937c4.466,0,8.084-3.618,8.084-8.084 c0-4.466-3.618-8.084-8.084-8.084H210.189v-2.71c0-37.139,30.214-67.353,67.353-67.353h150.934c37.14,0,67.354,30.214,67.354,67.353 V150.905z"/> </g>
</svg>