<!DOCTYPE svg PUBLIC "-//W3C//DTD SVG 1.1//EN" "http://www.w3.org/Graphics/SVG/1.1/DTD/svg11.dtd">
<!-- Uploaded to: SVG Repo, www.svgrepo.com, Transformed by: SVG Repo Mixer Tools -->
<svg version="1.1" id="Layer_1" xmlns="http://www.w3.org/2000/svg" xmlns:xlink="http://www.w3.org/1999/xlink" viewBox="0 0 512 512" xml:space="preserve" width="256px" height="256px" fill="#000000" stroke="#000000" stroke-width="8.192">
<g id="SVGRepo_bgCarrier" stroke-width="0"/>
<g id="SVGRepo_tracerCarrier" stroke-linecap="round" stroke-linejoin="round"/>
<g id="SVGRepo_iconCarrier"> <path style="fill:#FF7856;" d="M439.242,19.941h-32.876v0.999l-279.175-0.999h-1.078H72.758c-35.959,0-65.213,29.254-65.213,65.213 l0.539,313.128h118.568l377.802-10.779V257.617V85.154C504.455,49.195,475.201,19.941,439.242,19.941z"/> <rect x="363.251" y="19.941" style="fill:#FED422;" width="44.194" height="302.888"/> <path style="fill:#FF6342;" d="M7.545,85.154c0-35.959,29.254-65.213,65.213-65.213h54.434l-0.539,378.341H8.084L7.545,85.154z"/> <path style="fill:#ECE5DD;" d="M493.379,277.136c-5.134,25.007-26.545,43.765-52.061,44.583 c-0.69,0.023-367.571,0.033-367.571,0.033c-35.786,0-65.649,28.418-66.195,64.199c-0.555,36.42,28.909,66.225,65.205,66.225h366.484 c35.959,0,65.213-29.254,65.213-65.213l-0.539-161.145L493.379,277.136z"/> <path style="fill:#FF7856;" d="M406.366,322.829V19.941h32.876c35.959,0,65.213,29.254,65.213,65.213v172.463 c0,35.959-29.254,65.213-65.213,65.213H406.366z"/> <path style="fill:#D9CBBD;" d="M439.242,386.425H7.559c-0.002,0.18-0.014,0.358-0.014,0.539c0,35.959,29.254,65.213,65.213,65.213 h366.484c35.959,0,65.213-29.254,65.213-65.213v-43.396l-15.329,18.961C476.849,377.716,458.667,386.425,439.242,386.425z"/> <polygon style="fill:#FED422;" points="191.326,473.798 147.672,495.624 147.672,386.425 234.981,386.425 234.981,495.624 "/> <path style="fill:#D9CBBD;" d="M493.379,277.136c-2.875,14.003-10.855,26.044-21.8,34.074v132.348 c19.621-11.255,32.876-32.399,32.876-56.595l-0.539-161.145L493.379,277.136z"/> <path style="fill:#C0AB91;" d="M471.579,377.637v65.922c19.621-11.255,32.876-32.399,32.876-56.595v-43.396l-15.329,18.961 C484.148,368.687,478.188,373.758,471.579,377.637z"/> <path style="fill:#FF6342;" d="M471.579,28.559V314.21c19.621-11.254,32.876-32.398,32.876-56.594V85.154 C504.455,60.958,491.2,39.814,471.579,28.559z"/> <path d="M439.242,10.779H72.758C32.639,10.779,0,43.417,0,83.537v301.81c0,40.119,32.639,72.758,72.758,72.758h67.368v35.032 c0,2.801,1.451,5.403,3.834,6.877c2.383,1.473,5.359,1.607,7.865,0.354l39.501-19.75l39.501,19.75 c1.141,0.57,2.38,0.854,3.615,0.854c1.479,0,2.952-0.405,4.25-1.207c2.383-1.473,3.834-4.076,3.834-6.877v-35.032h196.716 c40.119,0,72.758-32.639,72.758-72.758V83.537C512,43.417,479.361,10.779,439.242,10.779z M371.874,26.947h26.947v285.642h-26.947 V26.947z M16.168,83.537c0-31.204,25.385-56.589,56.589-56.589h45.811v285.642H72.758c-22.837,0-43.241,10.585-56.589,27.097V83.537 z M226.358,480.056l-31.416-15.708c-1.138-0.569-2.377-0.854-3.615-0.854c-1.239,0-2.477,0.285-3.615,0.854l-31.416,15.708v-86.625 h70.063V480.056z M495.832,385.347c0,31.204-25.385,56.589-56.589,56.589H242.526v-48.505h196.716 c22.837,0,43.241-10.585,56.589-27.097V385.347z M495.832,320.673c0,31.254-25.336,56.589-56.589,56.589H126.991 c-4.427,0-8.287,3.41-8.419,7.835c-0.138,4.578,3.533,8.333,8.081,8.333h13.474v48.505H73.708 c-30.987,0-56.941-24.515-57.528-55.496c-0.601-31.702,25.011-57.682,56.579-57.682h201.028c4.465,0,8.084-3.62,8.084-8.084 s-3.62-8.084-8.084-8.084h-139.05V26.947h220.968v285.642h-46.274c-4.465,0-8.084,3.62-8.084,8.084s3.62,8.084,8.084,8.084h129.811 c22.837,0,43.241-10.585,56.589-27.097V320.673z M495.832,256c0,31.204-25.385,56.589-56.589,56.589h-24.253V26.947h24.253 c31.204,0,56.589,25.386,56.589,56.589V256z"/> </g>
</svg>