<!DOCTYPE svg PUBLIC "-//W3C//DTD SVG 1.1//EN" "http://www.w3.org/Graphics/SVG/1.1/DTD/svg11.dtd">
<!-- Uploaded to: SVG Repo, www.svgrepo.com, Transformed by: SVG Repo Mixer Tools -->
<svg height="256px" width="256px" version="1.1" id="Layer_1" xmlns="http://www.w3.org/2000/svg" xmlns:xlink="http://www.w3.org/1999/xlink" viewBox="0 0 512.00 512.00" xml:space="preserve" fill="#000000" stroke="#000000" stroke-width="6.6559870000000005">
<g id="SVGRepo_bgCarrier" stroke-width="0"/>
<g id="SVGRepo_tracerCarrier" stroke-linecap="round" stroke-linejoin="round"/>
<g id="SVGRepo_iconCarrier"> <path style="fill:#ECE5DD;" d="M336.63,126.113H191.865h-22.097H77.821c-38.75,0-70.275,31.526-70.275,70.276v119.221 c0,38.75,31.525,70.277,70.275,70.277h91.948h22.097H336.63c38.75,0,70.275-31.526,70.275-70.275V196.389 C406.905,157.639,375.38,126.113,336.63,126.113z"/> <path style="fill:#CC7400;" d="M256,388.042l0.001-264.084h178.178c39.938,0,72.431,32.493,72.431,72.431v119.221 c0,39.939-32.493,72.432-72.431,72.432H256z"/> <path style="fill:#ED8800;" d="M188.632,372.184V139.815c0-8.758,7.1-15.858,15.858-15.858h116.82 c48.761,0,88.29,39.529,88.29,88.29v87.505c0,48.761-39.529,88.29-88.29,88.29H204.49 C195.732,388.042,188.632,380.941,188.632,372.184z"/> <path d="M434.179,118.568H77.821C34.911,118.568,0,153.479,0,196.389v119.221c0,42.911,34.911,77.822,77.821,77.822h356.357 c42.911,0,77.821-34.911,77.821-77.821V196.389C512,153.479,477.089,118.568,434.179,118.568z M337.169,377.263H199.411v-47.959 c0-4.465-3.62-8.084-8.084-8.084c-4.465,0-8.084,3.62-8.084,8.084v47.959H77.821c-34.05,0-61.652-27.603-61.652-61.652V196.389 c0-34.05,27.603-61.652,61.652-61.652h105.421v158.923c0,4.465,3.62,8.084,8.084,8.084c4.465,0,8.084-3.62,8.084-8.084V134.736 h137.758c34.05,0,61.652,27.603,61.652,61.652v119.221C398.821,349.66,371.218,377.263,337.169,377.263z M495.832,315.61 c0,33.995-27.657,61.652-61.652,61.652h-49.604c18.477-14.241,30.414-36.573,30.414-61.652V196.389 c0-25.079-11.937-47.411-30.414-61.652h49.604c33.996,0,61.652,27.658,61.652,61.652V315.61z"/> </g>
</svg>