<!DOCTYPE svg PUBLIC "-//W3C//DTD SVG 1.1//EN" "http://www.w3.org/Graphics/SVG/1.1/DTD/svg11.dtd">
<!-- Uploaded to: SVG Repo, www.svgrepo.com, Transformed by: SVG Repo Mixer Tools -->
<svg height="256px" width="256px" version="1.1" id="Layer_1" xmlns="http://www.w3.org/2000/svg" xmlns:xlink="http://www.w3.org/1999/xlink" viewBox="0 0 512 512" xml:space="preserve" fill="#000000" stroke="#000000" stroke-width="6.144">
<g id="SVGRepo_bgCarrier" stroke-width="0"/>
<g id="SVGRepo_tracerCarrier" stroke-linecap="round" stroke-linejoin="round"/>
<g id="SVGRepo_iconCarrier"> <path style="fill:#E0E0E3;" d="M63.189,508.766c-31.87,0-57.8-25.929-57.8-57.8V128.808h501.221v322.158 c0,31.871-25.93,57.8-57.8,57.8H63.189z"/> <path style="fill:#BABABA;" d="M473.735,128.808v322.158c0,31.87-25.93,57.8-57.8,57.8h32.876c31.87,0,57.8-25.929,57.8-57.8 V128.808H473.735z"/> <path style="fill:#C6C5CB;" d="M506.611,450.966V312.051H5.389v138.916c0,31.871,25.93,57.8,57.8,57.8h385.621 C480.681,508.766,506.611,482.838,506.611,450.966z"/> <path style="fill:#ACABB1;" d="M473.735,450.966c0,31.87-25.93,57.8-57.8,57.8h32.876c31.87,0,57.8-25.929,57.8-57.8V312.051 h-32.876V450.966z"/> <path style="fill:#FE5022;" d="M5.389,174.619V119.24c0-31.871,25.93-57.8,57.8-57.8h33.046h19.599h88.19h19.599h88.19h19.599 h117.397c31.87,0,57.8,25.929,57.8,57.8v55.379H5.389z"/> <path style="fill:#FF3501;" d="M448.811,61.44h-32.811c31.87,0,57.8,25.929,57.8,57.8l-0.065,55.379h32.876V119.24 C506.611,87.369,480.681,61.44,448.811,61.44z"/> <g> <path style="fill:#3E3D43;" d="M180.547,454.872c-13.372,0-24.253-10.879-24.253-24.253V260.851h-18.863 c-13.372,0-24.253-10.879-24.253-24.253c0-13.373,10.88-24.253,24.253-24.253h43.116c13.372,0,24.253,10.879,24.253,24.253v194.021 C204.8,443.992,193.92,454.872,180.547,454.872z"/> <path style="fill:#3E3D43;" d="M320.674,454.872c-43.091,0-78.147-35.056-78.147-78.147v-86.232 c0-43.091,35.056-78.147,78.147-78.147s78.147,35.056,78.147,78.147v86.232C398.821,419.815,363.765,454.872,320.674,454.872z M320.674,260.851c-16.344,0-29.642,13.297-29.642,29.642v86.232c0,16.345,13.298,29.642,29.642,29.642 s29.642-13.297,29.642-29.642v-86.232C350.316,274.147,337.018,260.851,320.674,260.851z"/> </g> <g> <path style="fill:#FFB656;" d="M138.608,117.705c-25.977-4.647-44.831-27.177-44.831-53.57c0-30.015,24.419-54.434,54.434-54.434 c26.393,0,48.923,18.855,53.57,44.831l1.815,10.142h-33.38l-1.779-6.269c-2.555-9.001-10.873-15.289-20.227-15.289 c-11.59,0-21.019,9.429-21.019,21.019c0,9.354,6.287,17.671,15.29,20.227l6.268,1.779v33.379L138.608,117.705z"/> <path style="fill:#FFB656;" d="M246.936,117.705c-25.977-4.647-44.831-27.176-44.831-53.57c0-30.015,24.419-54.434,54.434-54.434 c26.393,0,48.923,18.855,53.57,44.831l1.815,10.142h-33.38l-1.779-6.269c-2.555-9.001-10.873-15.289-20.227-15.289 c-11.59,0-21.019,9.429-21.019,21.019c0,9.354,6.287,17.671,15.29,20.227l6.268,1.779v33.379L246.936,117.705z"/> <path style="fill:#FFB656;" d="M354.725,117.705c-25.977-4.647-44.831-27.176-44.831-53.57c0-30.015,24.419-54.434,54.434-54.434 c26.393,0,48.923,18.855,53.57,44.831l1.815,10.142h-33.38l-1.779-6.269c-2.555-9.001-10.873-15.289-20.227-15.289 c-11.59,0-21.019,9.429-21.019,21.019c0,9.354,6.287,17.671,15.29,20.227l6.268,1.779v33.379L354.725,117.705z"/> </g> <g> <path style="fill:#2E2D30;" d="M156.295,312.051v118.568c0,13.373,10.88,24.253,24.253,24.253 c13.372,0,24.253-10.879,24.253-24.253V312.051H156.295z"/> <path style="fill:#2E2D30;" d="M350.316,312.051v64.674c0,16.345-13.298,29.642-29.642,29.642s-29.642-13.297-29.642-29.642 v-64.674h-48.505v64.674c0,43.091,35.056,78.147,78.147,78.147s78.147-35.056,78.147-78.147v-64.674H350.316z"/> </g> <path d="M450.021,53.926v-0.031h-24.797C421.248,23.528,395.224,0,363.789,0c-1.027,0-2.048,0.028-3.063,0.078 c-0.337,0.016-0.669,0.049-1.006,0.07c-0.676,0.044-1.353,0.088-2.023,0.154c-0.395,0.039-0.785,0.092-1.178,0.138 c-0.605,0.071-1.209,0.142-1.809,0.231c-0.414,0.061-0.824,0.135-1.235,0.204c-0.571,0.096-1.143,0.194-1.708,0.306 c-0.419,0.083-0.834,0.175-1.249,0.265c-0.552,0.121-1.103,0.246-1.649,0.382c-0.415,0.103-0.829,0.212-1.241,0.324 c-0.539,0.146-1.076,0.297-1.608,0.458c-0.409,0.123-0.816,0.248-1.22,0.379c-0.531,0.171-1.059,0.351-1.583,0.537 c-0.395,0.139-0.789,0.279-1.18,0.427c-0.528,0.198-1.052,0.409-1.573,0.621c-0.377,0.154-0.757,0.306-1.131,0.467 c-0.534,0.23-1.059,0.473-1.585,0.718c-0.35,0.163-0.704,0.321-1.051,0.49c-0.56,0.273-1.11,0.562-1.661,0.852 c-0.301,0.158-0.607,0.309-0.904,0.473c-0.665,0.364-1.319,0.747-1.969,1.134c-0.174,0.103-0.352,0.199-0.526,0.305 c-0.824,0.501-1.633,1.022-2.431,1.56c-0.176,0.119-0.344,0.246-0.517,0.365c-0.614,0.424-1.226,0.853-1.824,1.298 c-0.269,0.2-0.531,0.412-0.798,0.618c-0.492,0.378-0.982,0.757-1.462,1.149c-0.292,0.239-0.578,0.488-0.866,0.733 c-0.441,0.374-0.881,0.749-1.311,1.136c-0.295,0.265-0.583,0.537-0.873,0.807c-0.41,0.382-0.817,0.766-1.216,1.16 c-0.29,0.285-0.573,0.575-0.857,0.866c-0.385,0.395-0.766,0.792-1.141,1.196c-0.279,0.301-0.554,0.605-0.827,0.911 c-0.365,0.411-0.725,0.827-1.08,1.246c-0.264,0.313-0.526,0.626-0.784,0.944c-0.349,0.43-0.69,0.868-1.027,1.307 c-0.247,0.321-0.494,0.64-0.733,0.966c-0.336,0.455-0.662,0.918-0.985,1.384c-0.224,0.322-0.452,0.641-0.67,0.968 c-0.329,0.492-0.645,0.994-0.959,1.495c-0.195,0.312-0.397,0.619-0.586,0.933c-0.273,0.453-0.532,0.915-0.794,1.375 C299.224,12.68,279.071,0,256,0c-1.027,0-2.048,0.028-3.063,0.078c-0.337,0.016-0.669,0.049-1.006,0.07 c-0.676,0.044-1.353,0.088-2.023,0.154c-0.395,0.039-0.785,0.092-1.178,0.138c-0.605,0.071-1.209,0.142-1.809,0.231 c-0.414,0.061-0.825,0.135-1.235,0.204c-0.571,0.096-1.143,0.194-1.708,0.306c-0.419,0.083-0.834,0.175-1.249,0.265 c-0.552,0.121-1.103,0.246-1.649,0.382c-0.416,0.103-0.829,0.212-1.241,0.324c-0.539,0.146-1.076,0.297-1.608,0.458 c-0.409,0.123-0.816,0.248-1.22,0.379c-0.531,0.171-1.058,0.351-1.583,0.537c-0.395,0.139-0.789,0.279-1.18,0.427 c-0.528,0.198-1.052,0.409-1.573,0.621c-0.377,0.154-0.757,0.306-1.13,0.467c-0.534,0.23-1.058,0.473-1.585,0.718 c-0.35,0.163-0.704,0.321-1.051,0.49c-0.559,0.273-1.11,0.562-1.661,0.852c-0.301,0.158-0.607,0.309-0.904,0.473 c-0.665,0.364-1.319,0.747-1.969,1.134c-0.174,0.103-0.352,0.199-0.526,0.305c-0.824,0.501-1.633,1.022-2.431,1.56 c-0.175,0.119-0.344,0.246-0.517,0.365c-0.614,0.424-1.226,0.853-1.824,1.298c-0.269,0.2-0.531,0.412-0.798,0.618 c-0.492,0.378-0.982,0.757-1.462,1.149c-0.292,0.239-0.578,0.488-0.866,0.733c-0.441,0.374-0.881,0.749-1.311,1.136 c-0.295,0.265-0.583,0.537-0.873,0.807c-0.41,0.382-0.817,0.766-1.216,1.16c-0.29,0.285-0.573,0.575-0.857,0.866 c-0.385,0.395-0.766,0.792-1.141,1.196c-0.279,0.301-0.554,0.605-0.827,0.911c-0.365,0.411-0.725,0.827-1.08,1.246 c-0.264,0.313-0.526,0.626-0.784,0.944c-0.349,0.43-0.69,0.868-1.027,1.307c-0.247,0.321-0.494,0.64-0.733,0.966 c-0.336,0.455-0.661,0.918-0.985,1.384c-0.224,0.322-0.452,0.641-0.67,0.968c-0.329,0.492-0.645,0.994-0.959,1.495 c-0.195,0.312-0.397,0.619-0.586,0.933c-0.274,0.453-0.532,0.915-0.794,1.375C191.434,12.68,171.282,0,148.211,0 c-1.027,0-2.048,0.028-3.063,0.078c-0.337,0.016-0.669,0.049-1.006,0.07c-0.676,0.044-1.353,0.088-2.023,0.154 c-0.395,0.039-0.785,0.092-1.178,0.138c-0.605,0.071-1.209,0.142-1.809,0.231c-0.414,0.061-0.825,0.135-1.235,0.204 c-0.571,0.096-1.143,0.194-1.708,0.306c-0.419,0.083-0.834,0.175-1.249,0.265c-0.552,0.121-1.103,0.246-1.649,0.382 c-0.416,0.103-0.829,0.212-1.241,0.324c-0.539,0.146-1.076,0.297-1.608,0.458c-0.409,0.123-0.816,0.248-1.22,0.379 c-0.531,0.171-1.058,0.351-1.583,0.537c-0.395,0.139-0.789,0.279-1.18,0.427c-0.528,0.198-1.052,0.409-1.573,0.621 c-0.377,0.154-0.757,0.306-1.13,0.467c-0.534,0.23-1.058,0.473-1.585,0.718c-0.35,0.163-0.704,0.321-1.051,0.49 c-0.559,0.273-1.11,0.562-1.661,0.852c-0.301,0.158-0.607,0.309-0.904,0.473c-0.665,0.364-1.319,0.747-1.969,1.134 c-0.174,0.103-0.352,0.199-0.526,0.305c-0.824,0.501-1.633,1.022-2.431,1.56c-0.175,0.119-0.344,0.246-0.517,0.365 c-0.614,0.424-1.226,0.853-1.824,1.298c-0.269,0.2-0.531,0.412-0.798,0.618c-0.492,0.378-0.982,0.757-1.462,1.149 c-0.292,0.239-0.578,0.488-0.866,0.733c-0.441,0.374-0.881,0.749-1.311,1.136c-0.295,0.265-0.583,0.537-0.873,0.807 c-0.41,0.382-0.817,0.766-1.216,1.16c-0.29,0.285-0.573,0.575-0.857,0.866c-0.385,0.395-0.766,0.792-1.141,1.196 c-0.279,0.301-0.554,0.605-0.827,0.911c-0.365,0.411-0.725,0.827-1.08,1.246c-0.264,0.313-0.526,0.626-0.784,0.944 c-0.349,0.43-0.69,0.868-1.027,1.307c-0.247,0.321-0.494,0.64-0.733,0.966c-0.336,0.455-0.661,0.918-0.985,1.384 c-0.224,0.322-0.452,0.641-0.67,0.968c-0.329,0.492-0.645,0.994-0.959,1.495c-0.195,0.312-0.397,0.619-0.586,0.933 c-0.341,0.565-0.665,1.139-0.987,1.716c-0.148,0.263-0.303,0.521-0.446,0.786c-0.459,0.847-0.901,1.705-1.322,2.576 c-0.011,0.022-0.019,0.043-0.029,0.065c-0.407,0.847-0.795,1.705-1.165,2.573c-0.127,0.298-0.24,0.601-0.362,0.902 c-0.244,0.597-0.486,1.194-0.711,1.8c-0.135,0.362-0.257,0.731-0.384,1.096c-0.194,0.553-0.387,1.106-0.565,1.666 c-0.126,0.396-0.24,0.797-0.359,1.195c-0.16,0.539-0.317,1.079-0.462,1.625c-0.111,0.417-0.213,0.838-0.315,1.258 c-0.13,0.538-0.258,1.076-0.375,1.619c-0.093,0.431-0.179,0.863-0.262,1.298c-0.105,0.542-0.203,1.087-0.292,1.633 c-0.072,0.44-0.141,0.882-0.205,1.325c-0.033,0.237-0.079,0.472-0.11,0.71H61.979v0.031C27.694,54.575,0,82.646,0,117.084v331.727 C0,483.654,28.346,512,63.189,512h385.621C483.654,512,512,483.654,512,448.811V117.084C512,82.646,484.306,54.575,450.021,53.926z M363.789,16.168c22.501,0,41.251,16.311,45.082,37.726h-16.56c-3.527-12.428-14.978-21.558-28.522-21.558 c-16.344,0-29.642,13.297-29.642,29.642c0,13.544,9.13,24.994,21.558,28.521v16.56c-21.416-3.831-37.726-22.581-37.726-45.082 C317.979,36.718,338.529,16.168,363.789,16.168z M374.562,53.895h-21.526c0.051-0.067,0.098-0.135,0.15-0.199 c0.19-0.243,0.39-0.476,0.596-0.706c0.114-0.127,0.225-0.257,0.345-0.379c0.246-0.253,0.504-0.493,0.769-0.725 c0.093-0.082,0.179-0.17,0.274-0.249c0.364-0.304,0.745-0.59,1.14-0.855c0.091-0.06,0.188-0.111,0.279-0.169 c0.311-0.198,0.628-0.387,0.955-0.559c0.15-0.079,0.306-0.149,0.46-0.222c0.281-0.135,0.567-0.263,0.86-0.378 c0.172-0.068,0.347-0.13,0.523-0.192c0.291-0.101,0.586-0.191,0.885-0.272c0.178-0.049,0.356-0.097,0.537-0.138 c0.326-0.074,0.659-0.13,0.993-0.18c0.158-0.024,0.315-0.055,0.476-0.073c0.495-0.057,0.999-0.092,1.511-0.092 C368.188,48.505,372.101,50.623,374.562,53.895z M256,16.168c22.501,0,41.251,16.311,45.082,37.726h-16.56 C280.995,41.467,269.544,32.337,256,32.337c-16.344,0-29.642,13.297-29.642,29.642c0,13.544,9.13,24.994,21.558,28.521v16.56 c-21.416-3.831-37.726-22.581-37.726-45.082C210.189,36.718,230.74,16.168,256,16.168z M266.772,53.895h-21.526 c0.051-0.067,0.098-0.135,0.15-0.199c0.19-0.243,0.39-0.476,0.596-0.706c0.114-0.127,0.225-0.257,0.345-0.379 c0.246-0.253,0.504-0.493,0.769-0.725c0.093-0.082,0.179-0.17,0.274-0.249c0.364-0.304,0.745-0.59,1.14-0.855 c0.091-0.06,0.188-0.111,0.279-0.169c0.312-0.198,0.628-0.387,0.955-0.559c0.15-0.079,0.306-0.149,0.46-0.222 c0.281-0.135,0.567-0.263,0.86-0.378c0.172-0.068,0.347-0.13,0.523-0.192c0.291-0.101,0.586-0.191,0.885-0.272 c0.178-0.049,0.356-0.097,0.537-0.138c0.326-0.074,0.659-0.13,0.993-0.18c0.158-0.024,0.316-0.055,0.476-0.073 c0.495-0.057,0.999-0.092,1.511-0.092C260.399,48.505,264.312,50.623,266.772,53.895z M148.211,16.168 c22.501,0,41.251,16.311,45.082,37.726h-16.56c-3.527-12.428-14.978-21.558-28.522-21.558c-16.344,0-29.642,13.297-29.642,29.642 c0,13.544,9.13,24.994,21.558,28.521v16.56c-21.416-3.83-37.726-22.58-37.726-45.081C102.4,36.718,122.95,16.168,148.211,16.168z M158.983,53.895h-21.526c0.051-0.067,0.098-0.135,0.15-0.199c0.19-0.243,0.39-0.476,0.596-0.706 c0.114-0.127,0.225-0.257,0.345-0.379c0.246-0.253,0.504-0.493,0.769-0.725c0.093-0.082,0.179-0.17,0.274-0.249 c0.364-0.304,0.745-0.59,1.14-0.855c0.091-0.06,0.188-0.111,0.279-0.169c0.312-0.198,0.628-0.387,0.955-0.559 c0.15-0.079,0.306-0.149,0.46-0.222c0.281-0.135,0.567-0.263,0.86-0.378c0.172-0.068,0.347-0.13,0.523-0.192 c0.291-0.101,0.586-0.191,0.885-0.272c0.178-0.049,0.356-0.097,0.537-0.138c0.326-0.074,0.659-0.13,0.993-0.18 c0.158-0.024,0.316-0.055,0.476-0.073c0.495-0.057,0.999-0.092,1.511-0.092C152.609,48.505,156.522,50.623,158.983,53.895z M495.832,161.684H383.587c-4.465,0-8.084,3.62-8.084,8.084l0,0c0,4.465,3.62,8.084,8.084,8.084h112.244v270.958 c0,25.97-21.051,47.021-47.021,47.021H63.189c-25.969,0-47.021-21.052-47.021-47.021V177.853h331.774 c4.465,0,8.084-3.62,8.084-8.084l0,0c0-4.465-3.62-8.084-8.084-8.084H16.168v-44.6c0-25.969,21.052-47.021,47.021-47.021h23.586 c3.629,27.719,25.631,49.721,53.35,53.35v2.901c0,4.427,3.412,8.287,7.836,8.419c4.578,0.137,8.332-3.533,8.332-8.081V83.427 c0-4.484-3.694-7.944-8.178-7.974c-4.356-0.03-8.216-2.147-10.659-5.389h57.108c3.629,27.719,25.631,49.721,53.35,53.35v2.901 c0,4.427,3.412,8.287,7.836,8.419c4.578,0.137,8.332-3.533,8.332-8.081V83.427c0-4.484-3.694-7.944-8.178-7.974 c-4.356-0.03-8.216-2.147-10.659-5.389h57.108c3.629,27.719,25.631,49.721,53.35,53.35v2.901c0,4.427,3.412,8.287,7.836,8.419 c4.578,0.137,8.332-3.533,8.332-8.081V83.427c0-4.484-3.694-7.944-8.178-7.974c-4.356-0.03-8.216-2.147-10.659-5.389h95.774 c25.969,0,47.021,21.052,47.021,47.021V161.684z"/> <path d="M180.547,204.8h-43.116c-16.344,0-29.642,13.297-29.642,29.642s13.298,29.642,29.642,29.642h13.474v164.379 c0,16.345,13.298,29.642,29.642,29.642s29.642-13.297,29.642-29.642V234.442C210.189,218.097,196.891,204.8,180.547,204.8z M194.021,428.463c0,7.43-6.044,13.474-13.474,13.474s-13.474-6.044-13.474-13.474V256c0-4.465-3.618-8.084-8.084-8.084h-21.558 c-7.43,0-13.474-6.044-13.474-13.474s6.044-13.474,13.474-13.474h43.116c7.43,0,13.474,6.044,13.474,13.474V428.463z"/> <path d="M320.674,204.8c-46.062,0-83.537,37.475-83.537,83.537v86.232c0,46.062,37.475,83.537,83.537,83.537 s83.537-37.475,83.537-83.537v-86.232C404.211,242.275,366.735,204.8,320.674,204.8z M388.042,374.568 c0,37.146-30.221,67.368-67.368,67.368s-67.368-30.222-67.368-67.368v-86.232c0-37.146,30.221-67.368,67.368-67.368 s67.368,30.222,67.368,67.368V374.568z"/> <path d="M320.674,247.916c-22.289,0-40.421,18.132-40.421,40.421v86.232c0,22.289,18.132,40.421,40.421,40.421 c22.289,0,40.421-18.132,40.421-40.421v-86.232C361.095,266.048,342.962,247.916,320.674,247.916z M344.926,374.568 c0,13.373-10.88,24.253-24.253,24.253s-24.253-10.879-24.253-24.253v-86.232c0-13.373,10.88-24.253,24.253-24.253 s24.253,10.879,24.253,24.253V374.568z"/> </g>
</svg>