<!DOCTYPE svg PUBLIC "-//W3C//DTD SVG 1.1//EN" "http://www.w3.org/Graphics/SVG/1.1/DTD/svg11.dtd">
<!-- Uploaded to: SVG Repo, www.svgrepo.com, Transformed by: SVG Repo Mixer Tools -->
<svg height="256px" width="256px" version="1.1" id="Layer_1" xmlns="http://www.w3.org/2000/svg" xmlns:xlink="http://www.w3.org/1999/xlink" viewBox="0 0 512 512" xml:space="preserve" fill="#000000" stroke="#000000" stroke-width="5.12">
<g id="SVGRepo_bgCarrier" stroke-width="0"/>
<g id="SVGRepo_tracerCarrier" stroke-linecap="round" stroke-linejoin="round"/>
<g id="SVGRepo_iconCarrier"> <path style="fill:#FE5022;" d="M220.215,360.602V202.731c-39.597-14.856-66.065-52.936-66.065-95.376 C154.151,51.194,199.84,5.505,256,5.505s101.849,45.689,101.849,101.849c0,42.44-26.467,80.519-66.065,95.376v157.871H220.215z"/> <path style="fill:#FF3501;" d="M256,5.505c-5.623,0-11.138,0.466-16.516,1.347c48.333,7.915,85.333,49.966,85.333,100.503 c0,42.44-26.467,80.519-66.065,95.376v157.871h33.032V202.731c39.598-14.857,66.065-52.936,66.065-95.376 C357.849,51.194,312.16,5.505,256,5.505z"/> <path id="SVGCleanerId_0" style="fill:#3E3D43;" d="M120.349,506.495c-11.718,0-21.252-9.533-21.252-21.252v-58.576h313.806v58.576 c0,11.719-9.534,21.252-21.252,21.252H120.349z"/> <g> <path id="SVGCleanerId_0_1_" style="fill:#3E3D43;" d="M120.349,506.495c-11.718,0-21.252-9.533-21.252-21.252v-58.576h313.806 v58.576c0,11.719-9.534,21.252-21.252,21.252H120.349z"/> </g> <path style="fill:#2E2D30;" d="M379.32,426.667v58.576c0,11.719-9.534,21.252-21.252,21.252h33.583 c11.719,0,21.252-9.533,21.252-21.252v-58.576H379.32z"/> <path style="fill:#FF6342;" d="M121.118,404.645v-47.667c0-29.877,24.306-54.183,54.182-54.183h161.399 c29.877,0,54.183,24.306,54.183,54.183v47.667H121.118z"/> <path style="fill:#FE5022;" d="M336.7,302.796h-33.032c29.875,0,54.182,24.306,54.182,54.183v47.667h33.032v-47.667 C390.882,327.102,366.575,302.796,336.7,302.796z"/> <path style="fill:#FF3501;" d="M66.065,441.694c0,11.446,9.312,20.757,20.756,20.757h23.948c-11.446,0-20.756-9.312-20.756-20.757 v-25.035c0-26.356,21.442-47.799,47.8-47.799h-23.948c-26.358,0-47.8,21.443-47.8,47.799V441.694z"/> <path style="fill:#FE5022;" d="M66.065,441.694c0,11.446,9.312,20.757,20.756,20.757h33.032h272.294h33.032 c11.446,0,20.756-9.312,20.756-20.757v-25.035c0-26.355-21.442-47.799-47.8-47.799h-33.032H146.897h-33.032 c-26.358,0-47.8,21.443-47.8,47.799V441.694z"/> <path style="fill:#FF3501;" d="M398.136,368.86h-33.032c26.358,0,47.8,21.443,47.8,47.799v25.035 c0,11.446-9.312,20.757-20.756,20.757h33.032c11.446,0,20.756-9.312,20.756-20.757v-25.035 C445.935,390.304,424.493,368.86,398.136,368.86z"/> <path d="M398.136,363.355h-1.749v-6.376c0-32.912-26.776-59.688-59.687-59.688h-39.41v-90.818 c39.75-16.562,66.065-55.674,66.065-99.118C363.355,48.159,315.196,0,256,0S148.645,48.159,148.645,107.355 c0,43.444,26.315,82.555,66.065,99.118v90.818H175.3c-32.911,0-59.687,26.776-59.687,59.688v6.376h-1.749 c-29.393,0-53.305,23.912-53.305,53.304v25.035c0,14.481,11.782,26.263,26.262,26.263h6.771v17.286 c0,14.754,12.003,26.757,26.757,26.757H391.65c14.754,0,26.757-12.003,26.757-26.757v-17.286h6.771 c14.481,0,26.263-11.782,26.263-26.263v-25.035C451.441,387.267,427.529,363.355,398.136,363.355z M165.161,107.355 c0-50.088,40.75-90.839,90.839-90.839s90.839,40.751,90.839,90.839c0,38.434-24.337,72.86-60.559,85.664 c-3.3,1.167-5.505,4.286-5.505,7.786v96.486h-49.548v-96.486c0-3.5-2.205-6.62-5.505-7.786 C189.498,180.215,165.161,145.789,165.161,107.355z M401.892,485.243c0,5.647-4.594,10.241-10.241,10.241H120.349 c-5.647,0-10.241-4.594-10.241-10.241v-17.286h291.785V485.243z M434.925,441.694c0,5.383-4.364,9.747-9.747,9.747H86.821 c-5.382,0-9.746-4.364-9.746-9.746V416.66c0-20.318,16.471-36.789,36.789-36.789h186.139c4.561,0,8.258-3.697,8.258-8.258 c0-4.561-3.697-8.258-8.258-8.258H132.129v-6.376c0-23.844,19.328-43.172,43.172-43.172H336.7c23.843,0,43.171,19.328,43.171,43.171 v6.377h-43.456c-4.561,0-8.258,3.697-8.258,8.258c0,4.561,3.697,8.258,8.258,8.258h61.722c20.317,0,36.788,16.471,36.788,36.789 V441.694z"/> </g>
</svg>