<!DOCTYPE svg PUBLIC "-//W3C//DTD SVG 1.1//EN" "http://www.w3.org/Graphics/SVG/1.1/DTD/svg11.dtd">
<!-- Uploaded to: SVG Repo, www.svgrepo.com, Transformed by: SVG Repo Mixer Tools -->
<svg height="256px" width="256px" version="1.1" id="Layer_1" xmlns="http://www.w3.org/2000/svg" xmlns:xlink="http://www.w3.org/1999/xlink" viewBox="0 0 512 512" xml:space="preserve" fill="#000000" stroke="#000000" stroke-width="7.68">
<g id="SVGRepo_bgCarrier" stroke-width="0"/>
<g id="SVGRepo_tracerCarrier" stroke-linecap="round" stroke-linejoin="round"/>
<g id="SVGRepo_iconCarrier"> <path style="fill:#E0E0E3;" d="M105.095,312.057l21.558-21.558L460.8,182.71l0.539,112.806c0,9.57-7.769,17.321-17.338,17.3 L105.095,312.057z"/> <path style="fill:#D8D7DA;" d="M460.8,182.71l-32.825,10.589l0.488,102.217c0,9.079-6.997,16.509-15.886,17.229l31.423,0.07 c9.57,0.022,17.338-7.731,17.338-17.3L460.8,182.71z"/> <path style="fill:#CC7400;" d="M471.549,58.203c-4.802-3.51-10.446-5.365-16.322-5.365c-2.868,0-5.728,0.448-8.5,1.331 L65.075,175.861c-21.516,6.78-35.972,26.454-35.972,48.955v93.794l0.539,68.9h118.568l-7.87-86.569L462.99,200.228 c11.721-3.441,19.907-14.36,19.907-26.553V80.534C482.897,71.612,478.76,63.472,471.549,58.203z"/> <path style="fill:#E0E0E3;" d="M158.989,398.831v-44.193h298.917c7.848,0,14.211,6.363,14.211,14.211v29.982H158.989z"/> <path style="fill:#D8D7DA;" d="M457.907,354.639H425.57c7.848,0,14.211,6.363,14.211,14.211v29.982h32.337v-29.982 C472.118,361.001,465.755,354.639,457.907,354.639z"/> <path style="fill:#ED8800;" d="M108.543,311.72l31.873-9.949l-0.075-0.83l297.348-92.815c8.135-4.939,13.41-13.891,13.41-23.673 v-93.14c0-8.923-4.137-17.063-11.348-22.332c-4.802-3.51-10.446-5.365-16.321-5.365c-2.868,0-5.728,0.448-8.5,1.331L57.508,178.914 c-17.269,8.588-28.405,26.155-28.405,45.902v93.794l0.539,68.9h85.791L108.543,311.72z"/> <path style="fill:#FFA733;" d="M94.316,463.503c-49.41,0-89.306-41.51-86.644-91.487c2.342-43.99,37.932-79.58,81.922-81.923 c49.98-2.662,91.493,37.234,91.493,86.642c0,7.112-0.862,14.179-2.563,21.018h311.976c7.707,0,13.956,6.249,13.956,13.956v37.84 c0,7.707-6.249,13.955-13.956,13.955L94.316,463.503L94.316,463.503z"/> <path style="fill:#BABABA;" d="M385.347,261.2h-21.558c-4.465,0-8.084,3.62-8.084,8.084c0,4.465,3.62,8.084,8.084,8.084h21.558 c4.465,0,8.084-3.62,8.084-8.084C393.432,264.82,389.812,261.2,385.347,261.2z"/> <path style="fill:#FE5022;" d="M94.316,420.388c-24.072,0-43.655-19.583-43.655-43.654s19.583-43.654,43.655-43.654 s43.655,19.583,43.655,43.654S118.387,420.388,94.316,420.388z"/> <circle style="fill:#E0E0E3;" cx="94.316" cy="376.735" r="10.779"/> <circle style="fill:#FFFFFF;" cx="94.316" cy="376.735" r="10.779"/> <path style="fill:#FF9911;" d="M490.499,397.752h-18.92v65.75h18.92c7.707,0,13.956-6.249,13.956-13.955v-37.84 C504.455,404.001,498.206,397.752,490.499,397.752z"/> <circle style="fill:#E0E0E3;" cx="94.316" cy="376.735" r="10.779"/> <circle style="fill:#FFFFFF;" cx="94.316" cy="376.735" r="10.779"/> <path d="M503.916,388.049h-24.253v-35.032c0-4.465-3.62-8.084-8.084-8.084H183.855c-3.247-9.781-8.05-18.857-14.122-26.93 l291.06,0.234h0.007c2.143,0,4.198-0.852,5.714-2.366c1.518-1.516,2.37-3.573,2.37-5.718V203.926 c12.861-5.453,21.558-18.248,21.558-32.418V78.367c0-11.357-5.264-21.717-14.443-28.425c-9.2-6.722-20.705-8.592-31.565-5.13 L62.781,166.509c-24.657,7.769-41.223,30.331-41.223,56.143v87.501c0,1.26,0.296,2.448,0.811,3.512 C8.425,330.111,0,351.377,0,374.575c0,52.006,42.31,94.316,94.316,94.316h409.6c4.465,0,8.084-3.62,8.084-8.084v-64.674 C512,391.669,508.38,388.049,503.916,388.049z M452.716,302.063l-296.807-0.239l296.807-92.648V302.063z M37.726,222.652 c0-18.72,12.021-35.084,29.94-40.731l381.68-121.705c5.891-1.877,12.127-0.864,17.114,2.78c4.966,3.629,7.814,9.231,7.814,15.371 v93.143c0,8.392-5.638,15.91-13.713,18.28c-0.044,0.013-0.088,0.026-0.132,0.04L137.368,290.674 c-12.914-6.654-27.552-10.414-43.053-10.414c-21.215,0-40.816,7.043-56.589,18.911v-76.519H37.726z M495.832,452.723H95.312 c-43.023,0-78.723-34.355-79.14-77.376c-0.421-43.442,34.797-78.919,78.144-78.919c43.091,0,78.147,35.056,78.147,78.147 c0,6.535-0.806,13.024-2.397,19.292c-0.421,1.659-0.433,3.421,0.161,5.027c1.217,3.286,4.286,5.323,7.603,5.323h164.379 c4.465,0,8.084-3.62,8.084-8.084c0-4.465-3.62-8.084-8.084-8.084H187.674c0.636-4.448,0.957-8.954,0.957-13.474 c0-4.575-0.334-9.072-0.967-13.474h275.83v26.947h-85.64c-4.465,0-8.084,3.62-8.084,8.084c0,4.465,3.62,8.084,8.084,8.084h117.977 V452.723z"/> <path d="M128.335,351.405l-0.332,0.332c-2.297,2.297-2.944,5.767-1.63,8.737c1.962,4.434,3.031,9.346,2.971,14.513 c-0.224,19.303-16.463,35.011-35.763,34.612c-19.725-0.407-35.497-17.201-34.225-37.291c1.091-17.223,14.904-31.276,32.106-32.651 c4.678-0.374,9.184,0.182,13.356,1.497c2.862,0.902,5.984,0.238,8.107-1.884l0.333-0.333c4.168-4.168,2.439-11.249-3.167-13.072 c-5.936-1.931-12.344-2.803-19.003-2.391c-25.055,1.549-45.556,21.461-47.767,46.466c-2.68,30.308,21.232,55.833,50.993,55.834 c28.171,0.001,51.073-22.791,51.201-50.962c0.035-7.555-1.578-14.736-4.497-21.207C138.779,348.643,132.187,347.555,128.335,351.405 z"/> </g>
</svg>