<!DOCTYPE svg PUBLIC "-//W3C//DTD SVG 1.1//EN" "http://www.w3.org/Graphics/SVG/1.1/DTD/svg11.dtd">
<!-- Uploaded to: SVG Repo, www.svgrepo.com, Transformed by: SVG Repo Mixer Tools -->
<svg height="256px" width="256px" version="1.1" id="Layer_1" xmlns="http://www.w3.org/2000/svg" xmlns:xlink="http://www.w3.org/1999/xlink" viewBox="0 0 512 512" xml:space="preserve" fill="#000000" stroke="#000000" stroke-width="5.12">
<g id="SVGRepo_bgCarrier" stroke-width="0"/>
<g id="SVGRepo_tracerCarrier" stroke-linecap="round" stroke-linejoin="round"/>
<g id="SVGRepo_iconCarrier"> <polygon style="fill:#E0E0E3;" points="277.558,344.387 256,506.072 234.442,344.387 234.442,322.829 277.558,322.829 "/> <polygon style="fill:#ACABB1;" points="260.757,322.829 260.757,344.387 256,441.641 256,506.072 277.558,344.387 277.558,322.829 "/> <polygon style="fill:#FF6342;" points="342.232,64.135 342.232,42.577 169.768,42.577 169.768,64.135 158.989,236.598 158.989,279.714 353.01,279.714 353.01,236.598 "/> <g> <polygon style="fill:#FE5022;" points="342.232,64.135 342.232,42.577 307.831,47.543 307.831,69.101 318.609,241.564 318.609,279.714 353.01,279.714 353.01,236.598 "/> <path style="fill:#FE5022;" d="M355.035,10.24h-198.07c-4.835,0-8.755,3.919-8.755,8.755v23.316 c0,12.053,9.771,21.823,21.823,21.823h171.932c12.053,0,21.823-9.771,21.823-21.823V18.995 C363.789,14.159,359.87,10.24,355.035,10.24z"/> </g> <path style="fill:#FF3501;" d="M355.035,10.24h-32.876c4.835,0,8.755,3.919,8.755,8.755v23.316c0,12.053-9.77,21.823-21.823,21.823 h32.876c12.053,0,21.823-9.771,21.823-21.823V18.995C363.789,14.159,359.87,10.24,355.035,10.24z"/> <path style="fill:#FE5022;" d="M406.905,279.714c0-23.812-19.304-43.116-43.116-43.116H148.211 c-23.812,0-43.116,19.304-43.116,43.116v64.674h301.811V279.714z"/> <path style="fill:#FF3501;" d="M363.789,236.598h-34.01c23.812,0,43.116,19.304,43.116,43.116v64.674h34.01v-64.674 C406.905,255.902,387.601,236.598,363.789,236.598z"/> <path d="M363.789,226.358h-3.184l-9.851-157.614c12.215-3.763,21.119-15.154,21.119-28.588V16.839C371.874,7.554,364.32,0,355.035,0 h-198.07c-9.285,0-16.839,7.554-16.839,16.839v23.317c0,13.434,8.904,24.825,21.119,28.588l-9.851,157.614h-3.184 c-28.231,0-51.2,22.969-51.2,51.2v64.674c0,4.465,3.618,8.084,8.084,8.084h122.269l20.622,154.668C248.522,509,251.948,512,256,512 s7.478-3,8.014-7.016l20.622-154.668h122.269c4.466,0,8.084-3.62,8.084-8.084v-64.674 C414.989,249.327,392.021,226.358,363.789,226.358z M156.295,40.156V16.839c0-0.371,0.301-0.67,0.67-0.67h198.07 c0.371,0,0.67,0.301,0.67,0.67v23.317c0,7.587-6.152,13.739-13.739,13.739h-36.263c-4.465,0-8.084,3.62-8.084,8.084 s3.62,8.084,8.084,8.084h28.934l9.769,156.295H167.594l9.769-156.295h92.695c4.465,0,8.084-3.62,8.084-8.084 s-3.62-8.084-8.084-8.084H170.034C162.446,53.895,156.295,47.743,156.295,40.156z M256,442.747l-12.324-92.432h24.648L256,442.747z M398.821,334.147H113.179V307.2h99.705c4.466,0,8.084-3.62,8.084-8.084c0-4.465-3.618-8.084-8.084-8.084h-99.705v-13.474 c0-19.316,15.715-35.032,35.032-35.032h215.579c19.317,0,35.032,15.716,35.032,35.032V334.147z"/> </g>
</svg>