<!DOCTYPE svg PUBLIC "-//W3C//DTD SVG 1.1//EN" "http://www.w3.org/Graphics/SVG/1.1/DTD/svg11.dtd">
<!-- Uploaded to: SVG Repo, www.svgrepo.com, Transformed by: SVG Repo Mixer Tools -->
<svg height="256px" width="256px" version="1.1" id="Layer_1" xmlns="http://www.w3.org/2000/svg" xmlns:xlink="http://www.w3.org/1999/xlink" viewBox="0 0 511.998 511.998" xml:space="preserve" fill="#000000" stroke="#000000" stroke-width="3.5839860000000003">
<g id="SVGRepo_bgCarrier" stroke-width="0"/>
<g id="SVGRepo_tracerCarrier" stroke-linecap="round" stroke-linejoin="round"/>
<g id="SVGRepo_iconCarrier"> <polygon style="fill:#E0E0E3;" points="342.769,79.346 190.786,3.432 190.786,144.825 191.325,424.252 342.23,424.252 342.23,155.253 342.769,155.227 "/> <polygon style="fill:#ACABB1;" points="342.769,135.594 342.769,131.982 224.201,72.758 224.201,26.031 224.489,20.268 190.786,3.432 190.786,176.59 224.201,176.59 224.201,152.208 342.23,215.697 342.23,212.029 224.201,148.539 224.201,76.37 "/> <path style="fill:#FED422;" d="M320.673,402.715l-0.539-64.168V169.669c0-8.356,6.805-15.153,15.169-15.153h35.413 c8.364,0,15.169,6.798,15.169,15.153c0,0-0.48,209.314-0.534,210.972l-21.563,22.074H320.673z"/> <path style="fill:#EDBF00;" d="M370.716,154.516h-17.707v248.2h10.779l21.563-22.074c0.055-1.658,0.534-210.972,0.534-210.972 C385.885,161.313,379.081,154.516,370.716,154.516z"/> <path style="fill:#FED422;" d="M219.811,143.748h-35.413c-8.364,0-15.169,6.798-15.169,15.153v105.985h-0.006l-0.002,8.383 c-25.681,23.201-40.864,55.129-42.758,89.931c-0.179,3.29-0.234,6.682-0.163,10.083l0.153,7.358l107.989,43.612l0.539-42.534 V251.527v-92.625C234.98,150.545,228.175,143.748,219.811,143.748z"/> <path style="fill:#3E3D43;" d="M234.441,338.646c-12.185,0-22.097-9.903-22.097-22.074v-43.072c0-12.172,9.912-22.074,22.097-22.074 h86.232c12.185,0,22.097,9.903,22.097,22.074v43.072c0,12.172-9.912,22.074-22.097,22.074H234.441z"/> <path style="fill:#2E2D30;" d="M320.673,251.426h-21.655c12.185,0,22.097,9.903,22.097,22.074v43.072 c0,12.172-9.912,22.074-22.097,22.074h21.655c12.185,0,22.097-9.903,22.097-22.074v-43.072 C342.769,261.329,332.856,251.426,320.673,251.426z"/> <path style="fill:#3E3D43;" d="M255.996,500.166c-34.608,0-67.168-13.441-91.68-37.845c-3.256-3.242-6.397-6.721-9.336-10.338 l-4.851-5.974l0.178-0.181c-11.701-16.369-19.44-35.323-22.512-55.262l-1.343-9.924h258.9l-1.25,10.021 c-4.991,30.125-20.474,57.765-43.597,77.832c-23.413,20.317-53.262,31.564-84.046,31.671H255.996z"/> <path style="fill:#2E2D30;" d="M353.009,380.641l-1.66,10.021c-4.991,30.125-20.474,57.765-43.597,77.832 c-19.39,16.826-43.194,27.424-68.288,30.632c5.441,0.687,10.959,1.04,16.532,1.04l0.462-0.001 c30.785-0.107,60.633-11.353,84.046-31.671c23.123-20.065,38.606-47.707,43.597-77.832l1.25-10.021H353.009z"/> <path d="M370.716,150.905h-20.401V83.537c0-3.062-1.73-5.862-4.469-7.231L194.941,0.854c-2.507-1.254-5.483-1.119-7.865,0.354 c-2.384,1.473-3.834,4.076-3.834,6.877v132.1c-11.986,0.608-21.558,10.521-21.558,22.655v111.186 c-25.667,24.357-40.814,57.208-42.756,92.913c-0.139,2.551-0.202,5.094-0.204,7.628h-0.156c0,34.266,12.453,66.598,35.213,91.86 c0.038,0.042,0.074,0.085,0.112,0.127c0.003,0.003,0.006,0.006,0.01,0.01c1.644,1.819,3.337,3.606,5.087,5.35 c25.95,25.861,60.38,40.085,97.005,40.084c0.162,0,0.328,0,0.489,0c75.514-0.26,136.948-62.541,136.948-138.834V173.62 C393.431,161.095,383.241,150.905,370.716,150.905z M199.409,21.164l134.737,67.368v62.431 c-11.986,0.608-21.558,10.521-21.558,22.655v74.297h-70.063v-85.075c0-12.525-10.189-22.714-22.714-22.714h-20.401V21.164z M234.441,334.147c-7.43,0-13.474-6.044-13.474-13.474v-43.116c0-7.43,6.044-13.474,13.474-13.474h86.232 c7.43,0,13.474,6.044,13.474,13.474v43.116c0,7.43-6.044,13.474-13.474,13.474H234.441z M312.588,350.316v26.947h-70.063v-26.947 H312.588z M256.428,495.83c-32.456,0.089-63.028-12.448-86.026-35.368c-1.591-1.586-3.128-3.211-4.62-4.868 c-15.832-17.628-25.913-39.103-29.46-62.163h20.513c4.465,0,8.084-3.62,8.084-8.084s-3.62-8.084-8.084-8.084h-21.92 c-0.065-3.131-0.016-6.282,0.156-9.446c1.774-32.63,16.018-62.552,40.106-84.254c1.771-1.595,2.663-3.796,2.665-6.006h0.009V162.841 c0-3.615,2.931-6.546,6.546-6.546h35.413c3.615,0,6.546,2.931,6.546,6.546v86.205c-12.426,3.529-21.558,14.971-21.558,28.512v43.116 c0,13.542,9.132,24.983,21.558,28.512v28.077h-33.876c-4.465,0-8.084,3.62-8.084,8.084s3.62,8.084,8.084,8.084h183.113 C366.023,451.264,316.234,495.625,256.428,495.83z M377.262,373.164c0,1.372-0.03,2.738-0.075,4.099h-48.43v-28.077 c12.426-3.529,21.558-14.97,21.558-28.512v-43.116c0-13.542-9.132-24.983-21.558-28.512V173.62c0-3.61,2.936-6.546,6.546-6.546 h35.413c3.61,0,6.546,2.936,6.546,6.546V373.164z"/> </g>
</svg>